<svg xmlns="http://www.w3.org/2000/svg" width="307" height="121" viewBox="0 0 307 121">
  <g fill="none" fill-rule="evenodd">
    <path fill="#FFFFFF" d="M10.7943,120.061 C7.4613,120.061 4.9233,119.134 3.1783,117.281 C1.4333,115.428 0.5613,112.795 0.5613,109.384 C0.5613,107.689 0.8263,106.175 1.3583,104.844 C1.8913,103.513 2.6203,102.389 3.5473,101.472 C4.4743,100.555 5.5783,99.861 6.8603,99.387 C8.1423,98.914 9.5313,98.677 11.0303,98.677 C11.8983,98.677 12.6873,98.742 13.3973,98.87 C14.1073,98.998 14.7283,99.146 15.2603,99.313 C15.7923,99.481 16.2353,99.654 16.5913,99.831 C16.9453,100.008 17.2013,100.147 17.3593,100.245 L16.0283,103.971 C15.3983,103.636 14.6633,103.35 13.8253,103.114 C12.9873,102.877 12.0363,102.759 10.9713,102.759 C10.2623,102.759 9.5663,102.877 8.8863,103.114 C8.2063,103.35 7.6043,103.73 7.0823,104.252 C6.5603,104.775 6.1403,105.451 5.8253,106.279 C5.5093,107.107 5.3523,108.113 5.3523,109.295 C5.3523,110.242 5.4553,111.124 5.6623,111.943 C5.8693,112.761 6.2043,113.465 6.6683,114.057 C7.1313,114.649 7.7373,115.118 8.4863,115.462 C9.2353,115.807 10.1433,115.98 11.2083,115.98 C11.8783,115.98 12.4803,115.941 13.0123,115.862 C13.5443,115.783 14.0183,115.689 14.4323,115.581 C14.8463,115.472 15.2103,115.349 15.5253,115.21 C15.8413,115.073 16.1273,114.945 16.3843,114.827 L17.6553,118.523 C17.0053,118.918 16.0883,119.273 14.9043,119.588 C13.7223,119.903 12.3513,120.061 10.7943,120.061 Z M29.6937,107.9936 C29.2977,107.8956 28.8357,107.7926 28.3027,107.6826 C27.7707,107.5756 27.1987,107.5206 26.5887,107.5206 C26.3117,107.5206 25.9817,107.5456 25.5967,107.5956 C25.2127,107.6436 24.9217,107.6986 24.7237,107.7576 L24.7237,119.6466 L20.3177,119.6466 L20.3177,104.9186 C21.1057,104.6416 22.0377,104.3816 23.1127,104.1346 C24.1867,103.8886 25.3847,103.7636 26.7067,103.7636 C26.9427,103.7636 27.2277,103.7796 27.5637,103.8086 C27.8987,103.8386 28.2337,103.8786 28.5697,103.9276 C28.9047,103.9766 29.2397,104.0356 29.5747,104.1046 C29.9107,104.1746 30.1957,104.2576 30.4327,104.3556 L29.6937,107.9936 Z M32.798,119.6464 L37.205,119.6464 L37.205,104.0894 L32.798,104.0894 L32.798,119.6464 Z M37.619,99.5944 C37.619,100.4024 37.358,101.0384 36.835,101.5024 C36.313,101.9654 35.697,102.1964 34.987,102.1964 C34.278,102.1964 33.661,101.9654 33.139,101.5024 C32.616,101.0384 32.355,100.4024 32.355,99.5944 C32.355,98.7854 32.616,98.1494 33.139,97.6874 C33.661,97.2234 34.278,96.9914 34.987,96.9914 C35.697,96.9914 36.313,97.2234 36.835,97.6874 C37.358,98.1494 37.619,98.7854 37.619,99.5944 Z M41.1976,100.2152 L45.6046,99.5052 L45.6046,104.0902 L50.8986,104.0902 L50.8986,107.7572 L45.6046,107.7572 L45.6046,113.2292 C45.6046,114.1552 45.7676,114.8962 46.0936,115.4472 C46.4186,115.9992 47.0736,116.2762 48.0596,116.2762 C48.5326,116.2762 49.0206,116.2312 49.5236,116.1422 C50.0266,116.0532 50.4846,115.9312 50.8986,115.7732 L51.5196,119.2032 C50.9876,119.4202 50.3956,119.6082 49.7456,119.7652 C49.0946,119.9232 48.2966,120.0022 47.3496,120.0022 C46.1466,120.0022 45.1506,119.8392 44.3626,119.5142 C43.5736,119.1892 42.9426,118.7362 42.4696,118.1532 C41.9966,117.5712 41.6666,116.8662 41.4786,116.0382 C41.2916,115.2102 41.1976,114.2932 41.1976,113.2882 L41.1976,100.2152 Z M54.477,119.6464 L58.884,119.6464 L58.884,104.0894 L54.477,104.0894 L54.477,119.6464 Z M59.298,99.5944 C59.298,100.4024 59.036,101.0384 58.514,101.5024 C57.992,101.9654 57.375,102.1964 56.665,102.1964 C55.956,102.1964 55.339,101.9654 54.818,101.5024 C54.294,101.0384 54.034,100.4024 54.034,99.5944 C54.034,98.7854 54.294,98.1494 54.818,97.6874 C55.339,97.2234 55.956,96.9914 56.665,96.9914 C57.375,96.9914 57.992,97.2234 58.514,97.6874 C59.036,98.1494 59.298,98.7854 59.298,99.5944 Z M62.2855,111.8686 C62.2855,110.7446 62.4675,109.6846 62.8325,108.6886 C63.1965,107.6936 63.7235,106.8256 64.4145,106.0866 C65.1045,105.3476 65.9425,104.7606 66.9295,104.3266 C67.9145,103.8926 69.0385,103.6766 70.3005,103.6766 C71.1285,103.6766 71.8875,103.7496 72.5775,103.8976 C73.2675,104.0456 73.9375,104.2576 74.5895,104.5336 L73.6725,108.0536 C73.2585,107.8956 72.8045,107.7576 72.3115,107.6396 C71.8185,107.5206 71.2655,107.4616 70.6555,107.4616 C69.3535,107.4616 68.3825,107.8656 67.7415,108.6746 C67.1005,109.4826 66.7805,110.5476 66.7805,111.8686 C66.7805,113.2686 67.0815,114.3526 67.6825,115.1216 C68.2845,115.8906 69.3345,116.2756 70.8325,116.2756 C71.3655,116.2756 71.9365,116.2256 72.5485,116.1276 C73.1595,116.0286 73.7215,115.8716 74.2335,115.6546 L74.8545,119.2636 C74.3425,119.4796 73.7015,119.6666 72.9325,119.8246 C72.1635,119.9816 71.3155,120.0606 70.3895,120.0606 C68.9695,120.0606 67.7465,119.8486 66.7225,119.4256 C65.6965,119.0016 64.8525,118.4256 64.1925,117.6946 C63.5315,116.9666 63.0495,116.1026 62.7435,115.1066 C62.4375,114.1116 62.2855,113.0326 62.2855,111.8686 Z M82.6639,103.6757 C83.9649,103.6757 85.0489,103.8237 85.9169,104.1197 C86.7849,104.4157 87.4799,104.8397 88.0019,105.3907 C88.5249,105.9437 88.8939,106.6137 89.1119,107.4027 C89.3289,108.1907 89.4369,109.0687 89.4369,110.0347 L89.4369,119.2037 C88.8049,119.3417 87.9279,119.5047 86.8049,119.6917 C85.6809,119.8787 84.3199,119.9717 82.7229,119.9717 C81.7169,119.9717 80.8049,119.8837 79.9879,119.7067 C79.1679,119.5287 78.4639,119.2377 77.8729,118.8337 C77.2809,118.4297 76.8279,117.9017 76.5119,117.2517 C76.1969,116.6007 76.0389,115.8017 76.0389,114.8557 C76.0389,113.9487 76.2209,113.1797 76.5859,112.5497 C76.9509,111.9187 77.4389,111.4157 78.0499,111.0407 C78.6609,110.6667 79.3609,110.3947 80.1499,110.2267 C80.9379,110.0597 81.7559,109.9757 82.6049,109.9757 C83.1759,109.9757 83.6839,110.0007 84.1279,110.0497 C84.5719,110.0987 84.9309,110.1637 85.2069,110.2417 L85.2069,109.8277 C85.2069,109.0787 84.9809,108.4767 84.5269,108.0237 C84.0739,107.5697 83.2849,107.3427 82.1619,107.3427 C81.4119,107.3427 80.6719,107.3977 79.9429,107.5067 C79.2129,107.6147 78.5819,107.7677 78.0499,107.9647 L77.4879,104.4157 C77.7439,104.3367 78.0649,104.2527 78.4499,104.1637 C78.8329,104.0747 79.2519,103.9967 79.7059,103.9267 C80.1599,103.8587 80.6379,103.7997 81.1409,103.7497 C81.6439,103.7007 82.1509,103.6757 82.6639,103.6757 Z M83.0189,116.5707 C83.4529,116.5707 83.8669,116.5617 84.2609,116.5417 C84.6559,116.5217 84.9709,116.4927 85.2069,116.4527 L85.2069,113.1107 C85.0299,113.0717 84.7639,113.0327 84.4089,112.9927 C84.0539,112.9537 83.7289,112.9327 83.4329,112.9327 C83.0189,112.9327 82.6289,112.9587 82.2649,113.0077 C81.8999,113.0567 81.5799,113.1507 81.3029,113.2887 C81.0269,113.4257 80.8099,113.6137 80.6529,113.8497 C80.4949,114.0867 80.4159,114.3827 80.4159,114.7377 C80.4159,115.4277 80.6479,115.9057 81.1109,116.1727 C81.5749,116.4377 82.2099,116.5707 83.0189,116.5707 Z M99.64,119.9428 C98.358,119.9228 97.319,119.7848 96.52,119.5288 C95.721,119.2728 95.09,118.9128 94.627,118.4498 C94.163,117.9858 93.848,117.4238 93.68,116.7628 C93.513,116.1028 93.429,115.3588 93.429,114.5308 L93.429,97.4058 L97.836,96.6958 L97.836,113.6428 C97.836,114.0378 97.866,114.3928 97.925,114.7078 C97.984,115.0238 98.097,115.2898 98.265,115.5058 C98.432,115.7238 98.674,115.9008 98.99,116.0388 C99.305,116.1768 99.729,116.2658 100.261,116.3048 L99.64,119.9428 Z M114.3392,116.4828 C115.1482,116.4828 115.7192,116.4038 116.0552,116.2458 C116.3902,116.0878 116.5582,115.7828 116.5582,115.3288 C116.5582,114.9738 116.3402,114.6638 115.9062,114.3968 C115.4732,114.1308 114.8132,113.8308 113.9252,113.4958 C113.2352,113.2398 112.6102,112.9728 112.0472,112.6968 C111.4852,112.4208 111.0072,112.0898 110.6122,111.7058 C110.2182,111.3218 109.9122,110.8628 109.6952,110.3308 C109.4792,109.7978 109.3702,109.1578 109.3702,108.4078 C109.3702,106.9488 109.9122,105.7948 110.9972,104.9478 C112.0812,104.0998 113.5702,103.6758 115.4632,103.6758 C116.4092,103.6758 117.3172,103.7598 118.1852,103.9268 C119.0522,104.0948 119.7412,104.2778 120.2552,104.4738 L119.4852,107.9058 C118.9732,107.7278 118.4162,107.5698 117.8152,107.4318 C117.2132,107.2948 116.5372,107.2248 115.7882,107.2248 C114.4082,107.2248 113.7182,107.6098 113.7182,108.3788 C113.7182,108.5558 113.7482,108.7138 113.8072,108.8518 C113.8662,108.9898 113.9852,109.1228 114.1622,109.2518 C114.3392,109.3788 114.5802,109.5178 114.8872,109.6668 C115.1922,109.8158 115.5812,109.9798 116.0552,110.1588 C117.0212,110.5168 117.8192,110.8698 118.4502,111.2168 C119.0812,111.5648 119.5792,111.9408 119.9442,112.3438 C120.3092,112.7478 120.5662,113.1958 120.7132,113.6868 C120.8602,114.1788 120.9352,114.7498 120.9352,115.3978 C120.9352,116.9328 120.3592,118.0938 119.2042,118.8808 C118.0512,119.6678 116.4192,120.0608 114.3102,120.0608 C112.9292,120.0608 111.7812,119.9428 110.8642,119.7068 C109.9472,119.4698 109.3122,119.2728 108.9562,119.1148 L109.6952,115.5358 C110.4442,115.8318 111.2142,116.0638 112.0032,116.2308 C112.7912,116.3988 113.5702,116.4828 114.3392,116.4828 Z M124.217,119.6464 L128.624,119.6464 L128.624,104.0894 L124.217,104.0894 L124.217,119.6464 Z M129.038,99.5944 C129.038,100.4024 128.777,101.0384 128.254,101.5024 C127.732,101.9654 127.116,102.1964 126.406,102.1964 C125.696,102.1964 125.079,101.9654 124.557,101.5024 C124.035,101.0384 123.774,100.4024 123.774,99.5944 C123.774,98.7854 124.035,98.1494 124.557,97.6874 C125.079,97.2234 125.696,96.9914 126.406,96.9914 C127.116,96.9914 127.732,97.2234 128.254,97.6874 C128.777,98.1494 129.038,98.7854 129.038,99.5944 Z M132.6175,100.2152 L137.0235,99.5052 L137.0235,104.0902 L142.3185,104.0902 L142.3185,107.7572 L137.0235,107.7572 L137.0235,113.2292 C137.0235,114.1552 137.1865,114.8962 137.5125,115.4472 C137.8375,115.9992 138.4925,116.2762 139.4785,116.2762 C139.9525,116.2762 140.4395,116.2312 140.9425,116.1422 C141.4455,116.0532 141.9045,115.9312 142.3185,115.7732 L142.9395,119.2032 C142.4065,119.4202 141.8155,119.6082 141.1645,119.7652 C140.5135,119.9232 139.7155,120.0022 138.7685,120.0022 C137.5655,120.0022 136.5705,119.8392 135.7815,119.5142 C134.9925,119.1892 134.3625,118.7362 133.8885,118.1532 C133.4155,117.5712 133.0855,116.8662 132.8975,116.0382 C132.7105,115.2102 132.6175,114.2932 132.6175,113.2882 L132.6175,100.2152 Z M144.5654,111.9872 C144.5654,110.6072 144.7774,109.3992 145.2014,108.3642 C145.6254,107.3282 146.1824,106.4662 146.8724,105.7762 C147.5634,105.0852 148.3554,104.5632 149.2534,104.2082 C150.1504,103.8532 151.0724,103.6762 152.0194,103.6762 C154.2274,103.6762 155.9724,104.3512 157.2544,105.7012 C158.5354,107.0522 159.1764,109.0392 159.1764,111.6612 C159.1764,111.9182 159.1664,112.1982 159.1464,112.5042 C159.1274,112.8102 159.1064,113.0812 159.0884,113.3182 L149.0914,113.3182 C149.1894,114.2252 149.6124,114.9452 150.3624,115.4772 C151.1114,116.0092 152.1174,116.2762 153.3794,116.2762 C154.1884,116.2762 154.9804,116.2012 155.7604,116.0532 C156.5394,115.9052 157.1754,115.7242 157.6684,115.5062 L158.2594,119.0852 C158.0224,119.2032 157.7074,119.3222 157.3134,119.4402 C156.9184,119.5582 156.4794,119.6612 155.9974,119.7502 C155.5144,119.8392 154.9964,119.9132 154.4444,119.9722 C153.8924,120.0312 153.3404,120.0612 152.7884,120.0612 C151.3884,120.0612 150.1704,119.8542 149.1354,119.4402 C148.1004,119.0262 147.2424,118.4592 146.5624,117.7392 C145.8824,117.0202 145.3794,116.1672 145.0544,115.1812 C144.7284,114.1962 144.5654,113.1302 144.5654,111.9872 Z M154.9174,110.3012 C154.8974,109.9262 154.8334,109.5622 154.7254,109.2062 C154.6164,108.8522 154.4484,108.5362 154.2224,108.2602 C153.9954,107.9842 153.7094,107.7572 153.3644,107.5792 C153.0204,107.4032 152.5904,107.3142 152.0784,107.3142 C151.5854,107.3142 151.1614,107.3982 150.8064,107.5652 C150.4514,107.7332 150.1554,107.9542 149.9194,108.2312 C149.6824,108.5072 149.5004,108.8272 149.3714,109.1922 C149.2434,109.5572 149.1494,109.9262 149.0914,110.3012 L154.9174,110.3012 Z M169.6761,104.6225 C170.4251,104.4055 171.3921,104.2035 172.5741,104.0165 C173.7581,103.8285 175.0001,103.7345 176.3011,103.7345 C177.6221,103.7345 178.7211,103.9075 179.5991,104.2525 C180.4761,104.5985 181.1711,105.0855 181.6841,105.7165 C182.1971,106.3485 182.5621,107.0975 182.7791,107.9645 C182.9951,108.8325 183.1041,109.7985 183.1041,110.8625 L183.1041,119.6465 L178.6971,119.6465 L178.6971,111.3945 C178.6971,109.9765 178.5091,108.9705 178.1351,108.3785 C177.7601,107.7865 177.0601,107.4915 176.0351,107.4915 C175.7191,107.4915 175.3841,107.5065 175.0301,107.5355 C174.6741,107.5645 174.3591,107.6005 174.0831,107.6395 L174.0831,119.6465 L169.6761,119.6465 L169.6761,104.6225 Z M186.3564,111.9872 C186.3564,110.6072 186.5684,109.3992 186.9924,108.3642 C187.4164,107.3282 187.9734,106.4662 188.6634,105.7762 C189.3544,105.0852 190.1464,104.5632 191.0444,104.2082 C191.9414,103.8532 192.8634,103.6762 193.8104,103.6762 C196.0184,103.6762 197.7634,104.3512 199.0454,105.7012 C200.3264,107.0522 200.9674,109.0392 200.9674,111.6612 C200.9674,111.9182 200.9574,112.1982 200.9374,112.5042 C200.9184,112.8102 200.8974,113.0812 200.8794,113.3182 L190.8824,113.3182 C190.9804,114.2252 191.4034,114.9452 192.1534,115.4772 C192.9024,116.0092 193.9084,116.2762 195.1704,116.2762 C195.9794,116.2762 196.7714,116.2012 197.5514,116.0532 C198.3304,115.9052 198.9664,115.7242 199.4594,115.5062 L200.0504,119.0852 C199.8134,119.2032 199.4984,119.3222 199.1044,119.4402 C198.7094,119.5582 198.2704,119.6612 197.7884,119.7502 C197.3054,119.8392 196.7874,119.9132 196.2354,119.9722 C195.6834,120.0312 195.1314,120.0612 194.5794,120.0612 C193.1794,120.0612 191.9614,119.8542 190.9264,119.4402 C189.8914,119.0262 189.0334,118.4592 188.3534,117.7392 C187.6734,117.0202 187.1704,116.1672 186.8454,115.1812 C186.5194,114.1962 186.3564,113.1302 186.3564,111.9872 Z M196.7084,110.3012 C196.6884,109.9262 196.6244,109.5622 196.5164,109.2062 C196.4074,108.8522 196.2394,108.5362 196.0134,108.2602 C195.7864,107.9842 195.5004,107.7572 195.1554,107.5792 C194.8114,107.4032 194.3814,107.3142 193.8694,107.3142 C193.3764,107.3142 192.9524,107.3982 192.5974,107.5652 C192.2424,107.7332 191.9464,107.9542 191.7104,108.2312 C191.4734,108.5072 191.2914,108.8272 191.1624,109.1922 C191.0344,109.5572 190.9404,109.9262 190.8824,110.3012 L196.7084,110.3012 Z M204.2211,100.2152 L208.6271,99.5052 L208.6271,104.0902 L213.9221,104.0902 L213.9221,107.7572 L208.6271,107.7572 L208.6271,113.2292 C208.6271,114.1552 208.7901,114.8962 209.1161,115.4472 C209.4411,115.9992 210.0961,116.2762 211.0821,116.2762 C211.5561,116.2762 212.0431,116.2312 212.5461,116.1422 C213.0491,116.0532 213.5081,115.9312 213.9221,115.7732 L214.5431,119.2032 C214.0101,119.4202 213.4191,119.6082 212.7681,119.7652 C212.1171,119.9232 211.3191,120.0022 210.3721,120.0022 C209.1691,120.0022 208.1741,119.8392 207.3851,119.5142 C206.5961,119.1892 205.9661,118.7362 205.4921,118.1532 C205.0191,117.5712 204.6891,116.8662 204.5011,116.0382 C204.3141,115.2102 204.2211,114.2932 204.2211,113.2882 L204.2211,100.2152 Z M227.2758,110.7153 C226.8808,112.2133 226.4628,113.7023 226.0188,115.1813 C225.5748,116.6593 225.1068,118.1493 224.6138,119.6473 L221.1828,119.6473 C220.8268,118.8193 220.4408,117.8333 220.0258,116.6903 C219.6108,115.5463 219.1798,114.2993 218.7358,112.9473 C218.2908,111.5983 217.8368,110.1673 217.3718,108.6593 C216.9068,107.1513 216.4568,105.6273 216.0218,104.0903 L220.6658,104.0903 C220.8238,104.7993 220.9978,105.5733 221.1858,106.4113 C221.3748,107.2503 221.5728,108.1123 221.7808,108.9993 C221.9898,109.8873 222.2078,110.7793 222.4358,111.6763 C222.6638,112.5733 222.8968,113.4363 223.1348,114.2643 C223.3908,113.3973 223.6418,112.5093 223.8888,111.6023 C224.1348,110.6953 224.3728,109.8033 224.5988,108.9253 C224.8258,108.0483 225.0428,107.2003 225.2498,106.3823 C225.4568,105.5643 225.6388,104.7993 225.7968,104.0903 L228.9908,104.0903 C229.1488,104.7993 229.3268,105.5643 229.5238,106.3823 C229.7198,107.2003 229.9268,108.0483 230.1448,108.9253 C230.3618,109.8033 230.5888,110.6953 230.8248,111.6023 C231.0608,112.5093 231.3078,113.3973 231.5638,114.2643 C231.8018,113.4363 232.0408,112.5733 232.2778,111.6763 C232.5158,110.7793 232.7398,109.8873 232.9478,108.9993 C233.1558,108.1123 233.3538,107.2503 233.5428,106.4113 C233.7308,105.5733 233.9048,104.7993 234.0638,104.0903 L238.6478,104.0903 C238.2128,105.6273 237.7628,107.1513 237.2978,108.6593 C236.8338,110.1673 236.3788,111.5983 235.9338,112.9473 C235.4888,114.2993 235.0538,115.5463 234.6288,116.6903 C234.2038,117.8333 233.8128,118.8193 233.4578,119.6473 L230.0258,119.6473 C229.5338,118.1493 229.0498,116.6593 228.5768,115.1813 C228.1038,113.7023 227.6698,112.2133 227.2758,110.7153 Z M255.1809,111.8393 C255.1809,113.0623 255.0029,114.1803 254.6489,115.1953 C254.2929,116.2113 253.7809,117.0793 253.1109,117.7983 C252.4399,118.5193 251.6359,119.0753 250.7009,119.4703 C249.7629,119.8633 248.7129,120.0613 247.5499,120.0613 C246.4069,120.0613 245.3669,119.8633 244.4299,119.4703 C243.4939,119.0753 242.6899,118.5193 242.0199,117.7983 C241.3489,117.0793 240.8269,116.2113 240.4519,115.1953 C240.0779,114.1803 239.8899,113.0623 239.8899,111.8393 C239.8899,110.6163 240.0819,109.5023 240.4659,108.4963 C240.8509,107.4913 241.3829,106.6333 242.0639,105.9233 C242.7449,105.2133 243.5519,104.6613 244.4889,104.2673 C245.4249,103.8733 246.4459,103.6763 247.5499,103.6763 C248.6739,103.6763 249.7049,103.8733 250.6409,104.2673 C251.5779,104.6613 252.3809,105.2133 253.0509,105.9233 C253.7219,106.6333 254.2449,107.4913 254.6199,108.4963 C254.9939,109.5023 255.1809,110.6163 255.1809,111.8393 Z M250.6849,111.8393 C250.6849,110.4783 250.4139,109.4083 249.8729,108.6303 C249.3299,107.8513 248.5559,107.4613 247.5499,107.4613 C246.5439,107.4613 245.7649,107.8513 245.2129,108.6303 C244.6619,109.4083 244.3849,110.4783 244.3849,111.8393 C244.3849,113.1993 244.6619,114.2783 245.2129,115.0773 C245.7649,115.8763 246.5439,116.2763 247.5499,116.2763 C248.5559,116.2763 249.3299,115.8763 249.8729,115.0773 C250.4139,114.2783 250.6849,113.1993 250.6849,111.8393 Z M267.9574,107.9936 C267.5624,107.8956 267.1004,107.7926 266.5664,107.6826 C266.0344,107.5756 265.4624,107.5206 264.8524,107.5206 C264.5754,107.5206 264.2454,107.5456 263.8604,107.5956 C263.4764,107.6436 263.1854,107.6986 262.9884,107.7576 L262.9884,119.6466 L258.5814,119.6466 L258.5814,104.9186 C259.3694,104.6416 260.3014,104.3816 261.3764,104.1346 C262.4504,103.8886 263.6484,103.7636 264.9704,103.7636 C265.2064,103.7636 265.4924,103.7796 265.8274,103.8086 C266.1624,103.8386 266.4974,103.8786 266.8334,103.9276 C267.1684,103.9766 267.5034,104.0356 267.8394,104.1046 C268.1744,104.1746 268.4604,104.2576 268.6964,104.3556 L267.9574,107.9936 Z M275.4701,109.6762 C275.9041,109.2062 276.3511,108.7162 276.8141,108.2062 C277.2771,107.6972 277.7251,107.1922 278.1581,106.6922 C278.5921,106.1922 279.0001,105.7172 279.3841,105.2662 C279.7691,104.8162 280.0991,104.4232 280.3741,104.0902 L285.6151,104.0902 C284.5701,105.2902 283.5491,106.4372 282.5531,107.5282 C281.5581,108.6202 280.4681,109.7462 279.2851,110.9072 C279.8761,111.4412 280.4881,112.0772 281.1181,112.8182 C281.7491,113.5592 282.3611,114.3242 282.9521,115.1142 C283.5441,115.9052 284.0861,116.6952 284.5791,117.4852 C285.0721,118.2752 285.4861,118.9952 285.8221,119.6472 L280.7541,119.6472 C280.4391,119.1332 280.0801,118.5652 279.6761,117.9432 C279.2731,117.3202 278.8451,116.6972 278.3921,116.0742 C277.9401,115.4522 277.4621,114.8542 276.9601,114.2812 C276.4581,113.7082 275.9611,113.2242 275.4701,112.8282 L275.4701,119.6472 L271.0631,119.6472 L271.0631,97.4052 L275.4701,96.6962 L275.4701,109.6762 Z"/>
    <path fill="#FFC500" d="M173.964516,56.0318907 C174.037463,55.7093903 174.111689,55.2883481 174.173118,54.9607286 C174.299814,54.3118884 174.400916,53.6041791 174.475142,52.9374223 C174.494338,52.771053 174.505856,52.5803682 174.521213,52.413999 C174.5916,51.6435813 174.638952,51.2519736 174.638952,50.4623594 C174.638952,41.7932406 170.981387,35.2472497 165.11879,30.1281952 L197.526244,30.1281952 C188.340101,41.6460678 180.455477,49.9389361 173.910766,56.4772485 C173.931242,56.3966234 173.94404,56.1137956 173.964516,56.0318907 Z M148.695583,70.7658093 C137.527086,70.70822 128.442044,61.769071 128.115705,50.6658418 C128.119544,50.5007523 128.113145,50.3407819 128.122103,50.1744126 C128.617372,39.782732 135.482024,31.6255187 144.70656,29.7455459 C144.893406,29.707153 145.08793,29.6905161 145.277335,29.658522 C145.750847,29.5753373 146.22436,29.4895932 146.71067,29.4409622 C147.399183,29.3718549 148.096654,29.3347418 148.803084,29.3347418 C160.227533,29.3347418 169.519897,38.6283852 169.519897,50.0528351 C169.519897,50.7375086 169.482784,51.4132238 169.417516,52.0812604 C168.406503,62.0135059 160.008694,69.7112841 148.695583,70.7658093 Z M123.184775,54.7457283 C117.482149,46.8508665 113.818185,37.806777 113.133512,30.1281952 L133.430563,30.1281952 C127.094453,35.2472497 122.964656,41.964729 122.964656,50.4495618 C122.964656,50.7131931 122.99665,50.5711393 123.004329,50.8322111 C122.990251,52.0377485 123.037603,53.6144172 123.184775,54.7457283 Z M140.085334,25.0091407 L110.457526,25.0091407 L96.2585487,25.0091407 C97.4909611,13.4912681 106.673265,5.51578122 118.171941,5.51578122 C129.671897,5.51578122 138.852921,13.4912681 140.085334,25.0091407 Z M202.894853,25.0091407 L150.082847,25.0091407 C149.935674,25.0091407 149.7949,25.0283372 149.654126,25.0526527 C149.370019,25.0424146 149.09103,25.0091407 148.803084,25.0091407 L145.219745,25.0091407 C143.966857,10.9317409 132.543687,0 118.171941,0 C102.935076,0 91,12.1334389 91,27.3703046 C91,28.7844434 92.1453884,30.1281952 93.5595272,30.1281952 L108.005499,30.1281952 C109.08306,44.2055951 119.012746,62.798001 133.673718,71.6270902 C134.660416,72.2772102 135.66631,72.6227463 136.665805,73.0540267 C140.327209,74.8687315 144.363584,75.9078996 148.653351,75.9322151 C148.725018,76.0691498 148.763411,76.1996857 148.800524,76.1996857 L148.589363,75.6481075 C148.589363,75.6506671 148.869631,75.7748041 148.961774,75.7748041 C149.422489,75.7748041 149.986865,75.7991196 150.524366,75.7402505 C153.667465,75.5239705 156.682588,74.7829873 159.420003,73.5377773 C159.576134,73.4789082 159.736104,73.4353962 159.871759,73.3790866 C171.518888,68.5633361 190.284062,46.4503005 203.378603,30.2292965 L204.875927,28.5873598 C205.500451,27.8220612 205.630987,26.9671791 205.207386,26.0739041 C204.783784,25.1819088 203.88411,25.0091407 202.894853,25.0091407 Z"/>
    <text fill="#FFFFFF" opacity=".6" font-family="SourceSansPro-Bold, Source Sans Pro" font-size="20" font-weight="bold">
      <tspan x="280" y="101">2.0</tspan>
    </text>
  </g>
</svg>
