<svg xmlns="http://www.w3.org/2000/svg" width="209" height="30" viewBox="0 0 209 30">
  <g fill="none" fill-rule="evenodd">
    <path fill="#FFFFFF" d="M60.39715,20.0305 C58.73065,20.0305 57.46165,19.567 56.58915,18.6405 C55.71665,17.714 55.28065,16.3975 55.28065,14.692 C55.28065,13.8445 55.41315,13.0875 55.67915,12.422 C55.94565,11.7565 56.31015,11.1945 56.77365,10.736 C57.23715,10.2775 57.78915,9.9305 58.43015,9.6935 C59.07115,9.457 59.76565,9.3385 60.51515,9.3385 C60.94915,9.3385 61.34365,9.371 61.69865,9.435 C62.05365,9.499 62.36415,9.573 62.63015,9.6565 C62.89615,9.7405 63.11765,9.827 63.29565,9.9155 C63.47265,10.004 63.60065,10.0735 63.67965,10.1225 L63.01415,11.9855 C62.69915,11.818 62.33165,11.675 61.91265,11.557 C61.49365,11.4385 61.01815,11.3795 60.48565,11.3795 C60.13115,11.3795 59.78315,11.4385 59.44315,11.557 C59.10315,11.675 58.80215,11.865 58.54115,12.126 C58.28015,12.3875 58.07015,12.7255 57.91265,13.1395 C57.75465,13.5535 57.67615,14.0565 57.67615,14.6475 C57.67615,15.121 57.72765,15.562 57.83115,15.9715 C57.93465,16.3805 58.10215,16.7325 58.33415,17.0285 C58.56565,17.3245 58.86865,17.559 59.24315,17.731 C59.61765,17.9035 60.07165,17.99 60.60415,17.99 C60.93915,17.99 61.24015,17.9705 61.50615,17.931 C61.77215,17.8915 62.00915,17.8445 62.21615,17.7905 C62.42315,17.736 62.60515,17.6745 62.76265,17.605 C62.92065,17.5365 63.06365,17.4725 63.19215,17.4135 L63.82765,19.2615 C63.50265,19.459 63.04415,19.6365 62.45215,19.794 C61.86115,19.9515 61.17565,20.0305 60.39715,20.0305 L60.39715,20.0305 L60.39715,20.0305 Z M69.84685,13.9968 C69.64885,13.9478 69.41785,13.8963 69.15135,13.8413 C68.88535,13.7878 68.59935,13.7603 68.29435,13.7603 C68.15585,13.7603 67.99085,13.7728 67.79835,13.7978 C67.60635,13.8218 67.46085,13.8493 67.36185,13.8788 L67.36185,19.8233 L65.15885,19.8233 L65.15885,12.4593 C65.55285,12.3208 66.01885,12.1908 66.55635,12.0673 C67.09335,11.9443 67.69235,11.8818 68.35335,11.8818 C68.47135,11.8818 68.61385,11.8898 68.78185,11.9043 C68.94935,11.9193 69.11685,11.9393 69.28485,11.9638 C69.45235,11.9883 69.61985,12.0178 69.78735,12.0523 C69.95535,12.0873 70.09785,12.1288 70.21635,12.1778 L69.84685,13.9968 L69.84685,13.9968 Z M71.399,19.8232 L73.6025,19.8232 L73.6025,12.0447 L71.399,12.0447 L71.399,19.8232 L71.399,19.8232 Z M73.8095,9.7972 C73.8095,10.2012 73.679,10.5192 73.4175,10.7512 C73.1565,10.9827 72.8485,11.0982 72.4935,11.0982 C72.139,11.0982 71.8305,10.9827 71.5695,10.7512 C71.308,10.5192 71.1775,10.2012 71.1775,9.7972 C71.1775,9.3927 71.308,9.0747 71.5695,8.8437 C71.8305,8.6117 72.139,8.4957 72.4935,8.4957 C72.8485,8.4957 73.1565,8.6117 73.4175,8.8437 C73.679,9.0747 73.8095,9.3927 73.8095,9.7972 L73.8095,9.7972 L73.8095,9.7972 Z M75.5988,10.1076 L77.8023,9.7526 L77.8023,12.0451 L80.4493,12.0451 L80.4493,13.8786 L77.8023,13.8786 L77.8023,16.6146 C77.8023,17.0776 77.8838,17.4481 78.0468,17.7236 C78.2093,17.9996 78.5368,18.1381 79.0298,18.1381 C79.2663,18.1381 79.5103,18.1156 79.7618,18.0711 C80.0133,18.0266 80.2423,17.9656 80.4493,17.8866 L80.7598,19.6016 C80.4938,19.7101 80.1978,19.8041 79.8728,19.8826 C79.5473,19.9616 79.1483,20.0011 78.6748,20.0011 C78.0733,20.0011 77.5753,19.9196 77.1813,19.7571 C76.7868,19.5946 76.4713,19.3681 76.2348,19.0766 C75.9983,18.7856 75.8333,18.4331 75.7393,18.0191 C75.6458,17.6051 75.5988,17.1466 75.5988,16.6441 L75.5988,10.1076 L75.5988,10.1076 Z M82.2385,19.8232 L84.442,19.8232 L84.442,12.0447 L82.2385,12.0447 L82.2385,19.8232 L82.2385,19.8232 Z M84.649,9.7972 C84.649,10.2012 84.518,10.5192 84.257,10.7512 C83.996,10.9827 83.6875,11.0982 83.3325,11.0982 C82.978,11.0982 82.6695,10.9827 82.409,10.7512 C82.147,10.5192 82.017,10.2012 82.017,9.7972 C82.017,9.3927 82.147,9.0747 82.409,8.8437 C82.6695,8.6117 82.978,8.4957 83.3325,8.4957 C83.6875,8.4957 83.996,8.6117 84.257,8.8437 C84.518,9.0747 84.649,9.3927 84.649,9.7972 L84.649,9.7972 L84.649,9.7972 Z M86.14275,15.9343 C86.14275,15.3723 86.23375,14.8423 86.41625,14.3443 C86.59825,13.8468 86.86175,13.4128 87.20725,13.0433 C87.55225,12.6738 87.97125,12.3803 88.46475,12.1633 C88.95725,11.9463 89.51925,11.8383 90.15025,11.8383 C90.56425,11.8383 90.94375,11.8748 91.28875,11.9488 C91.63375,12.0228 91.96875,12.1288 92.29475,12.2668 L91.83625,14.0268 C91.62925,13.9478 91.40225,13.8788 91.15575,13.8198 C90.90925,13.7603 90.63275,13.7308 90.32775,13.7308 C89.67675,13.7308 89.19125,13.9328 88.87075,14.3373 C88.55025,14.7413 88.39025,15.2738 88.39025,15.9343 C88.39025,16.6343 88.54075,17.1763 88.84125,17.5608 C89.14225,17.9453 89.66725,18.1378 90.41625,18.1378 C90.68275,18.1378 90.96825,18.1128 91.27425,18.0638 C91.57975,18.0143 91.86075,17.9358 92.11675,17.8273 L92.42725,19.6318 C92.17125,19.7398 91.85075,19.8333 91.46625,19.9123 C91.08175,19.9908 90.65775,20.0303 90.19475,20.0303 C89.48475,20.0303 88.87325,19.9243 88.36125,19.7128 C87.84825,19.5008 87.42625,19.2128 87.09625,18.8473 C86.76575,18.4833 86.52475,18.0513 86.37175,17.5533 C86.21875,17.0558 86.14275,16.5163 86.14275,15.9343 L86.14275,15.9343 Z M96.50945,18.28535 C96.72645,18.28535 96.93345,18.28085 97.13045,18.27085 C97.32795,18.26085 97.48545,18.24635 97.60345,18.22635 L97.60345,16.55535 C97.51495,16.53585 97.38195,16.51635 97.20445,16.49635 C97.02695,16.47685 96.86445,16.46635 96.71645,16.46635 C96.50945,16.46635 96.31445,16.47935 96.13245,16.50385 C95.94995,16.52835 95.78995,16.57535 95.65145,16.64435 C95.51345,16.71285 95.40495,16.80685 95.32645,16.92485 C95.24745,17.04335 95.20795,17.19135 95.20795,17.36885 C95.20795,17.71385 95.32395,17.95285 95.55545,18.08635 C95.78745,18.21885 96.10495,18.28535 96.50945,18.28535 L96.50945,18.28535 Z M96.33195,11.83785 C96.98245,11.83785 97.52445,11.91185 97.95845,12.05985 C98.39245,12.20785 98.73995,12.41985 99.00095,12.69535 C99.26245,12.97185 99.44695,13.30685 99.55595,13.70135 C99.66445,14.09535 99.71845,14.53435 99.71845,15.01735 L99.71845,19.60185 C99.40245,19.67085 98.96395,19.75235 98.40245,19.84585 C97.84045,19.93935 97.15995,19.98585 96.36145,19.98585 C95.85845,19.98585 95.40245,19.94185 94.99395,19.85335 C94.58395,19.76435 94.23195,19.61885 93.93645,19.41685 C93.64045,19.21485 93.41395,18.95085 93.25595,18.62585 C93.09845,18.30035 93.01945,17.90085 93.01945,17.42785 C93.01945,16.97435 93.11045,16.58985 93.29295,16.27485 C93.47545,15.95935 93.71945,15.70785 94.02495,15.52035 C94.33045,15.33335 94.68045,15.19735 95.07495,15.11335 C95.46895,15.02985 95.87795,14.98785 96.30245,14.98785 C96.58795,14.98785 96.84195,15.00035 97.06395,15.02485 C97.28595,15.04935 97.46545,15.08185 97.60345,15.12085 L97.60345,14.91385 C97.60345,14.53935 97.49045,14.23835 97.26345,14.01185 C97.03695,13.78485 96.64245,13.67135 96.08095,13.67135 C95.70595,13.67135 95.33595,13.69885 94.97145,13.75335 C94.60645,13.80735 94.29095,13.88385 94.02495,13.98235 L93.74395,12.20785 C93.87195,12.16835 94.03245,12.12635 94.22495,12.08185 C94.41645,12.03735 94.62595,11.99835 94.85295,11.96335 C95.07995,11.92935 95.31895,11.89985 95.57045,11.87485 C95.82195,11.85035 96.07545,11.83785 96.33195,11.83785 L96.33195,11.83785 Z M104.82,19.9714 C104.179,19.9614 103.6595,19.8924 103.26,19.7644 C102.8605,19.6364 102.545,19.4564 102.3135,19.2249 C102.0815,18.9929 101.924,18.7119 101.84,18.3814 C101.7565,18.0514 101.7145,17.6794 101.7145,17.2654 L101.7145,8.7029 L103.918,8.3479 L103.918,16.8214 C103.918,17.0189 103.933,17.1964 103.9625,17.3539 C103.992,17.5119 104.0485,17.6449 104.1325,17.7529 C104.216,17.8619 104.337,17.9504 104.495,18.0194 C104.6525,18.0884 104.8645,18.1329 105.1305,18.1524 L104.82,19.9714 L104.82,19.9714 Z M112.1696,18.2414 C112.5741,18.2414 112.8596,18.2019 113.0276,18.1229 C113.1951,18.0439 113.2791,17.8914 113.2791,17.6644 C113.2791,17.4869 113.1701,17.3319 112.9531,17.1984 C112.7366,17.0654 112.4066,16.9154 111.9626,16.7479 C111.6176,16.6199 111.3051,16.4864 111.0236,16.3484 C110.7426,16.2104 110.5036,16.0449 110.3061,15.8529 C110.1091,15.6609 109.9561,15.4314 109.8476,15.1654 C109.7396,14.8989 109.6851,14.5789 109.6851,14.2039 C109.6851,13.4744 109.9561,12.8974 110.4986,12.4739 C111.0406,12.0499 111.7851,11.8379 112.7316,11.8379 C113.2046,11.8379 113.6586,11.8799 114.0926,11.9634 C114.5261,12.0474 114.8706,12.1389 115.1276,12.2369 L114.7426,13.9529 C114.4866,13.8639 114.2081,13.7849 113.9076,13.7159 C113.6066,13.6474 113.2686,13.6124 112.8941,13.6124 C112.2041,13.6124 111.8591,13.8049 111.8591,14.1894 C111.8591,14.2779 111.8741,14.3569 111.9036,14.4259 C111.9331,14.4949 111.9926,14.5614 112.0811,14.6259 C112.1696,14.6894 112.2901,14.7589 112.4436,14.8334 C112.5961,14.9079 112.7906,14.9899 113.0276,15.0794 C113.5106,15.2584 113.9096,15.4349 114.2251,15.6084 C114.5406,15.7824 114.7896,15.9704 114.9721,16.1719 C115.1546,16.3739 115.2831,16.5979 115.3566,16.8434 C115.4301,17.0894 115.4676,17.3749 115.4676,17.6989 C115.4676,18.4664 115.1796,19.0469 114.6021,19.4404 C114.0256,19.8339 113.2096,20.0304 112.1551,20.0304 C111.4646,20.0304 110.8906,19.9714 110.4321,19.8534 C109.9736,19.7349 109.6561,19.6364 109.4781,19.5574 L109.8476,17.7679 C110.2221,17.9159 110.6071,18.0319 111.0016,18.1154 C111.3956,18.1994 111.7851,18.2414 112.1696,18.2414 L112.1696,18.2414 Z M117.1085,19.8232 L119.312,19.8232 L119.312,12.0447 L117.1085,12.0447 L117.1085,19.8232 L117.1085,19.8232 Z M119.519,9.7972 C119.519,10.2012 119.3885,10.5192 119.127,10.7512 C118.866,10.9827 118.558,11.0982 118.203,11.0982 C117.848,11.0982 117.5395,10.9827 117.2785,10.7512 C117.0175,10.5192 116.887,10.2012 116.887,9.7972 C116.887,9.3927 117.0175,9.0747 117.2785,8.8437 C117.5395,8.6117 117.848,8.4957 118.203,8.4957 C118.558,8.4957 118.866,8.6117 119.127,8.8437 C119.3885,9.0747 119.519,9.3927 119.519,9.7972 L119.519,9.7972 L119.519,9.7972 Z M121.30875,10.1076 L123.51175,9.7526 L123.51175,12.0451 L126.15925,12.0451 L126.15925,13.8786 L123.51175,13.8786 L123.51175,16.6146 C123.51175,17.0776 123.59325,17.4481 123.75625,17.7236 C123.91875,17.9996 124.24625,18.1381 124.73925,18.1381 C124.97625,18.1381 125.21975,18.1156 125.47125,18.0711 C125.72275,18.0266 125.95225,17.9656 126.15925,17.8866 L126.46975,19.6016 C126.20325,19.7101 125.90775,19.8041 125.58225,19.8826 C125.25675,19.9616 124.85775,20.0011 124.38425,20.0011 C123.78275,20.0011 123.28525,19.9196 122.89075,19.7571 C122.49625,19.5946 122.18125,19.3681 121.94425,19.0766 C121.70775,18.7856 121.54275,18.4331 121.44875,18.0191 C121.35525,17.6051 121.30875,17.1466 121.30875,16.6441 L121.30875,10.1076 L121.30875,10.1076 Z M132.4587,15.1506 C132.4487,14.9631 132.4167,14.7811 132.3627,14.6031 C132.3082,14.4261 132.2242,14.2681 132.1112,14.1301 C131.9977,13.9921 131.8547,13.8786 131.6822,13.7896 C131.5102,13.7016 131.2952,13.6571 131.0392,13.6571 C130.7927,13.6571 130.5807,13.6991 130.4032,13.7826 C130.2257,13.8666 130.0777,13.9771 129.9597,14.1156 C129.8412,14.2536 129.7502,14.4136 129.6857,14.5961 C129.6217,14.7786 129.5747,14.9631 129.5457,15.1506 L132.4587,15.1506 L132.4587,15.1506 Z M127.2827,15.9936 C127.2827,15.3036 127.3887,14.6996 127.6007,14.1821 C127.8127,13.6641 128.0912,13.2331 128.4362,12.8881 C128.7817,12.5426 129.1777,12.2816 129.6267,12.1041 C130.0752,11.9266 130.5362,11.8381 131.0097,11.8381 C132.1137,11.8381 132.9862,12.1756 133.6272,12.8506 C134.2677,13.5261 134.5882,14.5196 134.5882,15.8306 C134.5882,15.9591 134.5832,16.0991 134.5732,16.2521 C134.5637,16.4051 134.5532,16.5406 134.5442,16.6591 L129.5457,16.6591 C129.5947,17.1126 129.8062,17.4726 130.1812,17.7386 C130.5557,18.0046 131.0587,18.1381 131.6897,18.1381 C132.0942,18.1381 132.4902,18.1006 132.8802,18.0266 C133.2697,17.9526 133.5877,17.8621 133.8342,17.7531 L134.1297,19.5426 C134.0112,19.6016 133.8537,19.6611 133.6567,19.7201 C133.4592,19.7791 133.2397,19.8306 132.9987,19.8751 C132.7572,19.9196 132.4982,19.9566 132.2222,19.9861 C131.9462,20.0156 131.6702,20.0306 131.3942,20.0306 C130.6942,20.0306 130.0852,19.9271 129.5677,19.7201 C129.0502,19.5131 128.6212,19.2296 128.2812,18.8696 C127.9412,18.5101 127.6897,18.0836 127.5272,17.5906 C127.3642,17.0981 127.2827,16.5651 127.2827,15.9936 L127.2827,15.9936 L127.2827,15.9936 Z M139.83805,12.31125 C140.21255,12.20275 140.69605,12.10175 141.28705,12.00825 C141.87905,11.91425 142.50005,11.86725 143.15055,11.86725 C143.81105,11.86725 144.36055,11.95375 144.79955,12.12625 C145.23805,12.29925 145.58555,12.54275 145.84205,12.85825 C146.09855,13.17425 146.28105,13.54875 146.38955,13.98225 C146.49755,14.41625 146.55205,14.89925 146.55205,15.43125 L146.55205,19.82325 L144.34855,19.82325 L144.34855,15.69725 C144.34855,14.98825 144.25455,14.48525 144.06755,14.18925 C143.88005,13.89325 143.53005,13.74575 143.01755,13.74575 C142.85955,13.74575 142.69205,13.75325 142.51505,13.76775 C142.33705,13.78225 142.17955,13.80025 142.04155,13.81975 L142.04155,19.82325 L139.83805,19.82325 L139.83805,12.31125 L139.83805,12.31125 Z M153.3542,15.1506 C153.3442,14.9631 153.3122,14.7811 153.2582,14.6031 C153.2037,14.4261 153.1197,14.2681 153.0067,14.1301 C152.8932,13.9921 152.7502,13.8786 152.5777,13.7896 C152.4057,13.7016 152.1907,13.6571 151.9347,13.6571 C151.6882,13.6571 151.4762,13.6991 151.2987,13.7826 C151.1212,13.8666 150.9732,13.9771 150.8552,14.1156 C150.7367,14.2536 150.6457,14.4136 150.5812,14.5961 C150.5172,14.7786 150.4702,14.9631 150.4412,15.1506 L153.3542,15.1506 L153.3542,15.1506 Z M148.1782,15.9936 C148.1782,15.3036 148.2842,14.6996 148.4962,14.1821 C148.7082,13.6641 148.9867,13.2331 149.3317,12.8881 C149.6772,12.5426 150.0732,12.2816 150.5222,12.1041 C150.9707,11.9266 151.4317,11.8381 151.9052,11.8381 C153.0092,11.8381 153.8817,12.1756 154.5227,12.8506 C155.1632,13.5261 155.4837,14.5196 155.4837,15.8306 C155.4837,15.9591 155.4787,16.0991 155.4687,16.2521 C155.4592,16.4051 155.4487,16.5406 155.4397,16.6591 L150.4412,16.6591 C150.4902,17.1126 150.7017,17.4726 151.0767,17.7386 C151.4512,18.0046 151.9542,18.1381 152.5852,18.1381 C152.9897,18.1381 153.3857,18.1006 153.7757,18.0266 C154.1652,17.9526 154.4832,17.8621 154.7297,17.7531 L155.0252,19.5426 C154.9067,19.6016 154.7492,19.6611 154.5522,19.7201 C154.3547,19.7791 154.1352,19.8306 153.8942,19.8751 C153.6527,19.9196 153.3937,19.9566 153.1177,19.9861 C152.8417,20.0156 152.5657,20.0306 152.2897,20.0306 C151.5897,20.0306 150.9807,19.9271 150.4632,19.7201 C149.9457,19.5131 149.5167,19.2296 149.1767,18.8696 C148.8367,18.5101 148.5852,18.0836 148.4227,17.5906 C148.2597,17.0981 148.1782,16.5651 148.1782,15.9936 L148.1782,15.9936 L148.1782,15.9936 Z M157.11055,10.1076 L159.31355,9.7526 L159.31355,12.0451 L161.96105,12.0451 L161.96105,13.8786 L159.31355,13.8786 L159.31355,16.6146 C159.31355,17.0776 159.39505,17.4481 159.55805,17.7236 C159.72055,17.9996 160.04805,18.1381 160.54105,18.1381 C160.77805,18.1381 161.02155,18.1156 161.27305,18.0711 C161.52455,18.0266 161.75405,17.9656 161.96105,17.8866 L162.27155,19.6016 C162.00505,19.7101 161.70955,19.8041 161.38405,19.8826 C161.05855,19.9616 160.65955,20.0011 160.18605,20.0011 C159.58455,20.0011 159.08705,19.9196 158.69255,19.7571 C158.29805,19.5946 157.98305,19.3681 157.74605,19.0766 C157.50955,18.7856 157.34455,18.4331 157.25055,18.0191 C157.15705,17.6051 157.11055,17.1466 157.11055,16.6441 L157.11055,10.1076 L157.11055,10.1076 Z M168.6379,15.35765 C168.4404,16.10665 168.2314,16.85115 168.0094,17.59065 C167.7874,18.32965 167.5534,19.07465 167.3069,19.82365 L165.5914,19.82365 C165.4134,19.40965 165.2204,18.91665 165.0129,18.34515 C164.8054,17.77315 164.5899,17.14965 164.3679,16.47365 C164.1454,15.79915 163.9184,15.08365 163.6859,14.32965 C163.4534,13.57565 163.2284,12.81365 163.0109,12.04515 L165.3329,12.04515 C165.4119,12.39965 165.4989,12.78665 165.5929,13.20565 C165.6874,13.62515 165.7864,14.05615 165.8904,14.49965 C165.9949,14.94365 166.1039,15.38965 166.2179,15.83815 C166.3319,16.28665 166.4484,16.71815 166.5674,17.13215 C166.6954,16.69865 166.8209,16.25465 166.9444,15.80115 C167.0674,15.34765 167.1864,14.90165 167.2994,14.46265 C167.4129,14.02415 167.5214,13.60015 167.6249,13.19115 C167.7284,12.78215 167.8194,12.39965 167.8984,12.04515 L169.4954,12.04515 C169.5744,12.39965 169.6634,12.78215 169.7619,13.19115 C169.8599,13.60015 169.9634,14.02415 170.0724,14.46265 C170.1809,14.90165 170.2944,15.34765 170.4124,15.80115 C170.5304,16.25465 170.6539,16.69865 170.7819,17.13215 C170.9009,16.71815 171.0204,16.28665 171.1389,15.83815 C171.2579,15.38965 171.3699,14.94365 171.4739,14.49965 C171.5779,14.05615 171.6769,13.62515 171.7714,13.20565 C171.8654,12.78665 171.9524,12.39965 172.0319,12.04515 L174.3239,12.04515 C174.1064,12.81365 173.8814,13.57565 173.6489,14.32965 C173.4169,15.08365 173.1894,15.79915 172.9669,16.47365 C172.7444,17.14965 172.5269,17.77315 172.3144,18.34515 C172.1019,18.91665 171.9064,19.40965 171.7289,19.82365 L170.0129,19.82365 C169.7669,19.07465 169.5249,18.32965 169.2884,17.59065 C169.0519,16.85115 168.8349,16.10665 168.6379,15.35765 L168.6379,15.35765 Z M180.34245,15.91965 C180.34245,15.23915 180.20695,14.70415 179.93645,14.31515 C179.66495,13.92565 179.27795,13.73065 178.77495,13.73065 C178.27195,13.73065 177.88245,13.92565 177.60645,14.31515 C177.33095,14.70415 177.19245,15.23915 177.19245,15.91965 C177.19245,16.59965 177.33095,17.13915 177.60645,17.53865 C177.88245,17.93815 178.27195,18.13815 178.77495,18.13815 C179.27795,18.13815 179.66495,17.93815 179.93645,17.53865 C180.20695,17.13915 180.34245,16.59965 180.34245,15.91965 L180.34245,15.91965 Z M182.59045,15.91965 C182.59045,16.53115 182.50145,17.09015 182.32445,17.59765 C182.14645,18.10565 181.89045,18.53965 181.55545,18.89915 C181.21995,19.25965 180.81795,19.53765 180.35045,19.73515 C179.88145,19.93165 179.35645,20.03065 178.77495,20.03065 C178.20345,20.03065 177.68345,19.93165 177.21495,19.73515 C176.74695,19.53765 176.34495,19.25965 176.00995,18.89915 C175.67445,18.53965 175.41345,18.10565 175.22595,17.59765 C175.03895,17.09015 174.94495,16.53115 174.94495,15.91965 C174.94495,15.30815 175.04095,14.75115 175.23295,14.24815 C175.42545,13.74565 175.69145,13.31665 176.03195,12.96165 C176.37245,12.60665 176.77595,12.33065 177.24445,12.13365 C177.71245,11.93665 178.22295,11.83815 178.77495,11.83815 C179.33695,11.83815 179.85245,11.93665 180.32045,12.13365 C180.78895,12.33065 181.19045,12.60665 181.52545,12.96165 C181.86095,13.31665 182.12245,13.74565 182.30995,14.24815 C182.49695,14.75115 182.59045,15.30815 182.59045,15.91965 L182.59045,15.91965 Z M188.9787,13.9968 C188.7812,13.9478 188.5502,13.8963 188.2832,13.8413 C188.0172,13.7878 187.7312,13.7603 187.4262,13.7603 C187.2877,13.7603 187.1227,13.7728 186.9302,13.7978 C186.7382,13.8218 186.5927,13.8493 186.4942,13.8788 L186.4942,19.8233 L184.2907,19.8233 L184.2907,12.4593 C184.6847,12.3208 185.1507,12.1908 185.6882,12.0673 C186.2252,11.9443 186.8242,11.8818 187.4852,11.8818 C187.6032,11.8818 187.7462,11.8898 187.9137,11.9043 C188.0812,11.9193 188.2487,11.9393 188.4167,11.9638 C188.5842,11.9883 188.7517,12.0178 188.9197,12.0523 C189.0872,12.0873 189.2302,12.1288 189.3482,12.1778 L188.9787,13.9968 L188.9787,13.9968 Z M192.73505,14.8381 C192.95205,14.6031 193.17555,14.3581 193.40705,14.1031 C193.63855,13.8486 193.86255,13.5961 194.07905,13.3461 C194.29605,13.0961 194.50005,12.8586 194.69205,12.6331 C194.88455,12.4081 195.04955,12.2116 195.18705,12.0451 L197.80755,12.0451 C197.28505,12.6451 196.77455,13.2186 196.27655,13.7641 C195.77905,14.3101 195.23405,14.8731 194.64255,15.4536 C194.93805,15.7206 195.24405,16.0386 195.55905,16.4091 C195.87455,16.7796 196.18055,17.1621 196.47605,17.5571 C196.77205,17.9526 197.04305,18.3476 197.28955,18.7426 C197.53605,19.1376 197.74305,19.4976 197.91105,19.8236 L195.37705,19.8236 C195.21955,19.5666 195.04005,19.2826 194.83805,18.9716 C194.63655,18.6601 194.42255,18.3486 194.19605,18.0371 C193.97005,17.7261 193.73105,17.4271 193.48005,17.1406 C193.22905,16.8541 192.98055,16.6121 192.73505,16.4141 L192.73505,19.8236 L190.53155,19.8236 L190.53155,8.7026 L192.73505,8.3481 L192.73505,14.8381 L192.73505,14.8381 Z"/>
    <path fill="#FFC500" d="M32.393,22.0655 C32.401,22.034 32.406,21.9235 32.414,21.8915 C32.4425,21.7655 32.4715,21.601 32.4955,21.473 C32.545,21.2195 32.5845,20.943 32.6135,20.6825 C32.621,20.6175 32.6255,20.543 32.6315,20.478 C32.659,20.177 32.6775,20.024 32.6775,19.7155 C32.6775,16.3285 31.2485,13.771 28.958,11.771 L41.6195,11.771 C38.0305,16.271 34.95,19.511 32.393,22.0655 M30.6375,20.348 C30.2425,24.2285 26.9615,27.236 22.5415,27.648 C18.178,27.6255 14.6285,24.133 14.501,19.795 C14.5025,19.7305 14.5,19.668 14.5035,19.603 C14.697,15.543 17.379,12.356 20.983,11.6215 C21.056,11.6065 21.132,11.6 21.206,11.5875 C21.391,11.555 21.576,11.5215 21.766,11.5025 C22.035,11.4755 22.3075,11.461 22.5835,11.461 C27.047,11.461 30.6775,15.092 30.6775,19.5555 C30.6775,19.823 30.663,20.087 30.6375,20.348 M12.504,19.86 C12.4985,20.331 12.517,20.947 12.5745,21.389 C10.3465,18.3045 8.915,14.771 8.6475,11.771 L16.5775,11.771 C14.102,13.771 12.4885,16.3955 12.4885,19.7105 C12.4885,19.8135 12.501,19.758 12.504,19.86 M10.616,2.155 C15.109,2.155 18.696,5.271 19.1775,9.771 L7.602,9.771 L2.0545,9.771 C2.536,5.271 6.1235,2.155 10.616,2.155 M44.6205,10.187 C44.455,9.8385 44.1035,9.771 43.717,9.771 L23.0835,9.771 C23.026,9.771 22.971,9.7785 22.916,9.788 C22.805,9.784 22.696,9.771 22.5835,9.771 L21.1835,9.771 C20.694,4.271 16.231,0 10.616,0 C4.663,0 0,4.7405 0,10.6935 C0,11.246 0.4475,11.771 1,11.771 L6.644,11.771 C7.065,17.271 10.9445,24.535 16.6725,27.9845 C17.058,28.2385 17.451,28.3735 17.8415,28.542 C17.855,28.548 17.869,28.511 17.8825,28.5165 C19.272,29.251 20.849,29.657 22.525,29.6665 C22.53,29.6665 22.534,29.719 22.539,29.7195 C22.553,29.72 22.568,29.771 22.5825,29.771 L22.5,29.771 L22.5,29.5555 C22.5,29.5565 22.6095,29.605 22.6455,29.605 C22.8255,29.605 23.046,29.6145 23.256,29.5915 C24.484,29.507 25.662,29.2175 26.7315,28.731 C26.7925,28.708 26.855,28.691 26.908,28.669 C31.4585,26.7875 38.79,18.148 43.906,11.8105 L44.491,11.169 C44.735,10.87 44.786,10.536 44.6205,10.187"/>
    <path fill="#9B9B9B" d="M195.37,9.16 C195.776669,8.7799981 196.148332,8.42500165 196.485,8.095 C196.821668,7.76499835 197.111665,7.45500145 197.355,7.165 C197.598335,6.87499855 197.788333,6.60500125 197.925,6.355 C198.061667,6.10499875 198.13,5.8666678 198.13,5.64 C198.13,5.3266651 198.050001,5.08833415 197.89,4.925 C197.729999,4.76166585 197.510001,4.68 197.23,4.68 C196.996666,4.68 196.790001,4.74499935 196.61,4.875 C196.429999,5.00500065 196.260001,5.1566658 196.1,5.33 L195.3,4.54 C195.613335,4.206665 195.933332,3.95500085 196.26,3.785 C196.586668,3.61499915 196.976664,3.53 197.43,3.53 C197.743335,3.53 198.028332,3.57833285 198.285,3.675 C198.541668,3.77166715 198.763332,3.90833245 198.95,4.085 C199.136668,4.26166755 199.28,4.4733321 199.38,4.72 C199.48,4.9666679 199.53,5.2433318 199.53,5.55 C199.53,5.816668 199.473334,6.08833195 199.36,6.365 C199.246666,6.64166805 199.095001,6.91833195 198.905,7.195 C198.714999,7.47166805 198.498335,7.74833195 198.255,8.025 C198.011665,8.30166805 197.760001,8.573332 197.5,8.84 C197.660001,8.8199999 197.838332,8.80166675 198.035,8.785 C198.231668,8.76833325 198.406666,8.76 198.56,8.76 L199.84,8.76 L199.84,10 L195.37,10 L195.37,9.16 Z M200.89,9.2 C200.89,8.933332 200.974999,8.71166755 201.145,8.535 C201.315001,8.35833245 201.526665,8.27 201.78,8.27 C202.033335,8.27 202.244999,8.35833245 202.415,8.535 C202.585001,8.71166755 202.67,8.933332 202.67,9.2 C202.67,9.4600013 202.585001,9.67833245 202.415,9.855 C202.244999,10.0316675 202.033335,10.12 201.78,10.12 C201.526665,10.12 201.315001,10.0316675 201.145,9.855 C200.974999,9.67833245 200.89,9.4600013 200.89,9.2 L200.89,9.2 Z M205.92,10.12 C205.579998,10.12 205.270001,10.048334 204.99,9.905 C204.709999,9.76166595 204.471668,9.5500014 204.275,9.27 C204.078332,8.9899986 203.925001,8.6433354 203.815,8.23 C203.704999,7.8166646 203.65,7.3400027 203.65,6.8 C203.65,6.2599973 203.704999,5.7866687 203.815,5.38 C203.925001,4.9733313 204.078332,4.63166805 204.275,4.355 C204.471668,4.07833195 204.709999,3.87166735 204.99,3.735 C205.270001,3.59833265 205.579998,3.53 205.92,3.53 C206.260002,3.53 206.569999,3.59833265 206.85,3.735 C207.130001,3.87166735 207.368332,4.07833195 207.565,4.355 C207.761668,4.63166805 207.914999,4.9733313 208.025,5.38 C208.135001,5.7866687 208.19,6.2599973 208.19,6.8 C208.19,7.3400027 208.135001,7.8166646 208.025,8.23 C207.914999,8.6433354 207.761668,8.9899986 207.565,9.27 C207.368332,9.5500014 207.130001,9.76166595 206.85,9.905 C206.569999,10.048334 206.260002,10.12 205.92,10.12 L205.92,10.12 Z M205.92,8.98 C206.046667,8.98 206.163333,8.94833365 206.27,8.885 C206.376667,8.82166635 206.47,8.7066675 206.55,8.54 C206.63,8.3733325 206.691666,8.1500014 206.735,7.87 C206.778334,7.5899986 206.8,7.2333355 206.8,6.8 C206.8,6.3666645 206.778334,6.01166805 206.735,5.735 C206.691666,5.45833195 206.63,5.24166745 206.55,5.085 C206.47,4.92833255 206.376667,4.8200003 206.27,4.76 C206.163333,4.6999997 206.046667,4.67 205.92,4.67 C205.799999,4.67 205.686667,4.6999997 205.58,4.76 C205.473333,4.8200003 205.38,4.92833255 205.3,5.085 C205.22,5.24166745 205.156667,5.45833195 205.11,5.735 C205.063333,6.01166805 205.04,6.3666645 205.04,6.8 C205.04,7.2333355 205.063333,7.5899986 205.11,7.87 C205.156667,8.1500014 205.22,8.3733325 205.3,8.54 C205.38,8.7066675 205.473333,8.82166635 205.58,8.885 C205.686667,8.94833365 205.799999,8.98 205.92,8.98 L205.92,8.98 Z"/>
  </g>
</svg>
