<?xml version="1.0" encoding="UTF-8" standalone="no"?>
<svg width="160px" height="174px" viewBox="0 0 160 174" version="1.1" xmlns="http://www.w3.org/2000/svg" xmlns:xlink="http://www.w3.org/1999/xlink">
    <!-- Generator: Sketch 41 (35326) - http://www.bohemiancoding.com/sketch -->
    <title>Group</title>
    <desc>Created with Sketch.</desc>
    <defs>
        <circle id="path-1" cx="80" cy="80" r="80"></circle>
    </defs>
    <g id="Page-1" stroke="none" stroke-width="1" fill="none" fill-rule="evenodd">
        <g id="Group">
            <g transform="translate(0.000000, 14.000000)">
                <g id="a-link" opacity="0.1" fill="#2A2823">
                    <circle id="a" cx="80" cy="80" r="80"></circle>
                </g>
                <g id="Clipped">
                    <mask id="mask-2" fill="white">
                        <use xlink:href="#path-1"></use>
                    </mask>
                    <g id="a"></g>
                    <path d="M197.229989,106.82257 L201.171191,104.814144 L202.365657,103.312932 L205.282783,103.678654 L206.897157,103.724079 L210.018287,102.189882 L209.966873,100.137397 L213.504983,97.9021692 L213.624437,95.19775 L215.216087,94.3514545 L214.734468,92.2173069 L212.655335,92.1467813 L210.590761,91.121138 L209.078591,88.2771603 L209.932796,87.4361873 L210.750292,83.832823 L209.885731,82.2068205 L208.363645,80.7889356 L208.786787,79.1372515 L210.021313,75.4369966 L205.751523,70.9287666 L202.132111,67.9420604 L201.285138,64.9568783 L199.215272,62.9479932 L197.406872,60.653694 L195.794593,59.9971135 L192.398534,62.630255 L190.840472,63.458691 L189.620991,63.3668247 L189.639484,61.2717838 L190.371342,58.8894848 L188.107683,59.8752215 L189.217158,57.3743928 L186.863617,56.0612658 L184.861152,56.472868 L183.848065,54.3216718 L184.108534,52.1900143 L185.43636,51.6044384 L185.603194,48.8150957 L182.295325,46.7623814 L181.8462,45.9176998 L184.232039,44.4748292 L185.750485,46.3573214 L189.113838,46.7031634 L188.209359,44.5103757 L186.170809,42.6322095 L188.405472,41.5311667 L187.762125,40.3212071 L184.846742,39.8243246 L182.411644,42.0336627 L179.916607,41.6726448 L176.730092,41.8859036 L174.070385,40.7952993 L172.060179,38.0800231 L171.769089,35.8935295 L170.103724,32.5155793 L165.601898,33.6132707 L165.56337,29.9367833 L167.531451,30.453141 L167.219005,26.8351496 L168.732576,23.4663324 L167.351549,22.5071096 L164.01285,28.9046448 L158.406717,32.277159 L155.427239,33.8613755 L156.842926,30.8001754 L156.363015,29.4058848 L160.21205,27.4082768 L162.02971,23.1472888 L158.592356,27.0655563 L154.308628,29.4739781 L151.440841,33.0619832 L144.680024,31.9580786 L145.23782,34.4003177 L142.789702,34.7002825 L140.160301,29.7550974 L135.350892,29.2199893 L130.950172,31.0805748 L128.996483,35.1686011 L124.866418,37.6201669 L126.404829,44.9471713 L124.131814,48.9871144 L118.374022,50.0882263 L111.973883,49.5714997 L108.399384,50.6010959 L101.269427,47.7384916 L96.6825493,48.2664673 L91.4235483,51.6776658 L85.7927991,57.5029474 L82.1208351,64.8399905 L80.801081,69.0751624 L78.2348384,70.5268066 L73.6014779,70.8126655 L70.1606735,71.4279646 L67.1894296,74.4834587 L65.1624116,81.2180863 L62.0409748,78.5325801 L61.2997755,76.319071 L62.4446824,72.5847043 L63.5630959,70.8575876 L61.7234208,69.445531 L59.1176392,65.5281877 L56.4428357,65.5565136 L54.8584759,66.0067627 L54.9058946,68.0618618 L53.9445175,69.3568853 L55.2515063,71.8149737 L52.1639676,74.9371987 L52.6853425,75.9177622 L55.9599674,77.2532622 L57.1019775,81.6174472 L55.7198309,83.6613222 L51.7571853,83.0135835 L47.7234483,84.892737 L40.0595864,92.7630031 L36.7556389,94.5197431 L31.1467658,94.4150422 L23.3998516,99.0325649 L16.5479771,105.685165 L10.882491,112.591365 L2.83288112,116.074551 L-2.40704751,121.427361 L-3.89678052,123.370497 L-7.06534366,122.343315 L-8.89763077,124.557131 L-9.73992146,128.612279 L-15.1317808,130.958879 L-22.0370581,131.997136 L-25.0455546,135.100982 L-27.900899,133.996794 L-29.2081445,131.538223 L-33.1745054,137.707121 L-29.5810003,140.199587 L-27.0630063,144.935245 L-22.5831069,144.411603 L-21.6059441,152.72125 L-19.4385152,152.011512 L-15.8655889,158.231646 L-12.9645392,161.191781 L-11.9051343,163.184232 L-8.21575593,166.147018 L-11.6926566,167.995719 L-11.5967819,171.650524 L-12.0920367,174.5472 L-6.77971279,177.276785 L0.719499783,173.798741 L3.28247705,176.141765 L5.91831865,179.620953 L5.60460268,183.317455 L9.0573855,186.482643 L11.4206615,186.453701 L12.7986162,188.566275 L17.7410968,189.081014 L23.3437331,190.317181 L26.06366,190.18814 L26.7724998,186.735194 L30.5125271,186.339327 L33.6528284,184.669599 L34.985182,203.549534 L38.6488658,202.929631 L39.5818467,199.357508 L44.4333856,191.378897 L49.7200985,186.089753 L55.9137326,183.859029 L60.5148454,183.625101 L67.6826806,176.361797 L73.436668,173.302347 L82.1167511,171.253755 L88.0328037,170.663881 L91.4235483,171.650524 L93.8906509,170.338742 L94.3530756,168.233509 L97.6835774,168.399605 L100.881828,169.60798 L102.124743,171.945562 L104.842287,172.27044 L108.134737,168.329173 L114.052721,168.867416 L117.050585,171.67659 L118.73976,171.044062 L120.172724,168.434722 L132.929633,162.713249 L137.801214,160.742769 L140.751223,134.520132 L143.571987,133.020305 L147.283788,126.10135 L151.203534,119.326509 L153.871406,116.60175 L165.56337,115.217554 L154.772287,113.489399 L156.275052,110.842945 L162.161869,109.305609 L169.967923,106.217547 L176.514548,102.736645 L181.11399,101.086951 L187.275072,100.898037 L194.505519,102.220744 L197.229989,106.82257 L197.229989,106.82257 Z M189.805222,53.4939349 L192.173152,54.8575076 L194.631877,56.6629867 L196.340409,56.2447268 L197.685971,54.1743919 L200.153519,52.6896914 L199.061037,49.9306578 L196.358841,50.9064164 L193.169534,50.3829334 L190.779938,51.5670013 L189.805222,53.4939349 L189.805222,53.4939349 Z M198.230235,56.8108711 L196.257287,58.6633783 L200.034139,60.9968553 L202.00399,63.4549382 L199.973629,59.1483212 L200.323695,57.4346192 L198.230235,56.8108711 L198.230235,56.8108711 Z M190.933721,42.6408846 L193.118054,43.5513108 L194.853084,42.4846073 L194.393338,40.596294 L192.1477,39.5169487 L192.314167,37.0180204 L190.341798,37.0290371 L189.203015,40.0232482 L190.933721,42.6408846 L190.933721,42.6408846 Z M179.234155,36.1943339 L180.301977,33.493798 L177.329753,33.6363312 L174.748077,35.3262098 L175.455858,37.7419412 L177.607661,37.4048432 L179.234155,36.1943339 L179.234155,36.1943339 Z M183.583134,31.323789 L185.647227,29.3039185 L185.368465,27.2076007 L183.581276,27.8983577 L182.225858,30.377289 L182.279581,31.7249939 L183.583134,31.323789 L183.583134,31.323789 Z M153.192621,24.4162593 L155.57931,19.3715632 L153.031868,14.4178342 L151.164607,15.5545219 L150.076562,22.6687082 L151.32067,25.8152732 L153.192621,24.4162593 L153.192621,24.4162593 Z" id="Shape" stroke="#EEEEEE" stroke-width="2" fill="#2A2823" mask="url(#mask-2)"></path>
                </g>
            </g>
            <g transform="translate(1.000000, 0.000000)">
                <path d="M31.8692685,124.976209 L99.3265256,125.099998 C106.43237,125.1 112.1,118.156257 112.1,109.711712 L112.1,108.611712 L36.9322358,108.611712 L36.9322358,109.711712 C36.9322358,116.624107 34.0776434,122.776211 31.8712871,122.776211 L31.8692685,124.976209 Z" id="Shape" fill="#EEEEEE"></path>
                <path d="M39.1109375,110.811721 L109.863617,110.811712 C109.412041,117.608216 104.814915,122.9 99.3285442,122.9 L35.4870994,122.782845 C37.4855191,120.222604 38.9215089,115.710294 39.1109375,110.811721 Z" id="Path" fill="#2A2823"></path>
                <path d="M88.9629566,2 C94.4570491,2 98.9108911,6.45443716 98.9108911,11.9462399 L98.9108911,109.647059 L41.5092485,109.647059 L41.5092485,114.050063 C41.5092485,119.543345 37.0554065,124 31.561314,124 C26.0660135,124 21.6133796,119.545261 21.6133796,114.050063 L21.6133796,109.647059 C21.6133796,109.647059 21.5190366,14.8735818 21.6133796,10.0192365 C21.7077226,5.16489132 16.4851485,2.15676296 16.4851485,2.15676296 C16.4851485,2.15676296 88.7762745,2 88.9629566,2 Z" id="Shape" stroke="#EEEEEE" stroke-width="2.2" fill="#FFC500"></path>
                <rect id="Rectangle-path" stroke="#EEEEEE" stroke-width="2" fill="#FFC500" x="30" y="14" width="14" height="14" rx="7"></rect>
                <path d="M0.9,11.887919 L0.9,45.965 L22.882,45.965 L22.882,11.887919 C22.882,5.81863391 17.9614506,0.9 11.891,0.9 C5.8201081,0.9 0.9,5.81898809 0.9,11.887919 Z" id="Path" fill="#EEEEEE"></path>
                <path d="M20.682,43.765 L3.1,43.765 L3.1,11.887919 C3.1,7.03412668 7.03502245,3.1 11.891,3.1 C16.7466159,3.1 20.682,7.03385215 20.682,11.887919 L20.682,43.765 Z" id="Path" fill="#2A2823"></path>
            </g>
            <path d="M76.3942934,38.4864865 L87.1784077,38.4864865 L87.1784077,41.325044 L76.3942934,41.325044 L76.3942934,38.4864865 Z M76.3942934,46.5966509 L90.4463211,46.5966509 L90.4463211,49.4352084 L76.3942934,49.4352084 L76.3942934,46.5966509 Z M76.3942934,54.7068153 L82.6033289,54.7068153 L82.6033289,57.5453728 L76.3942934,57.5453728 L76.3942934,54.7068153 Z M76.3942934,62.8169797 L91.4266951,62.8169797 L91.4266951,65.6555372 L76.3942934,65.6555372 L76.3942934,62.8169797 Z M30.970297,38.4864865 L40.4472459,38.4864865 L40.4472459,41.325044 L30.970297,41.325044 L30.970297,38.4864865 Z M30.970297,46.5966509 L52.2117342,46.5966509 L52.2117342,49.4352084 L30.970297,49.4352084 L30.970297,46.5966509 Z M57.2377077,38.4864865 L66.1851772,38.4864865 L66.1851772,41.325044 L57.2377077,41.325044 L57.2377077,38.4864865 Z M57.2377077,46.5966509 L62.9172638,46.5966509 L62.9172638,49.4352084 L57.2377077,49.4352084 L57.2377077,46.5966509 Z M30.970297,54.7068153 L46.9830727,54.7068153 L46.9830727,57.5453728 L30.970297,57.5453728 L30.970297,54.7068153 Z M57.2377077,54.7068153 L64.8780119,54.7068153 L64.8780119,57.5453728 L57.2377077,57.5453728 L57.2377077,54.7068153 Z M30.970297,62.8169797 L43.7151593,62.8169797 L43.7151593,65.6555372 L30.970297,65.6555372 L30.970297,62.8169797 Z M57.2377077,62.8169797 L70.4334647,62.8169797 L70.4334647,65.6555372 L57.2377077,65.6555372 L57.2377077,62.8169797 Z M76.3942934,70.5216359 L87.1784077,70.5216359 L87.1784077,73.3601934 L76.3942934,73.3601934 L76.3942934,70.5216359 Z M76.3942934,78.6318003 L90.4463211,78.6318003 L90.4463211,81.4703578 L76.3942934,81.4703578 L76.3942934,78.6318003 Z M76.3942934,86.7419647 L82.6033289,86.7419647 L82.6033289,89.5805222 L76.3942934,89.5805222 L76.3942934,86.7419647 Z M76.3942934,94.8521291 L91.4266951,94.8521291 L91.4266951,97.6906866 L76.3942934,97.6906866 L76.3942934,94.8521291 Z M30.970297,70.5216359 L40.4472459,70.5216359 L40.4472459,73.3601934 L30.970297,73.3601934 L30.970297,70.5216359 Z M30.970297,78.6318003 L52.2117342,78.6318003 L52.2117342,81.4703578 L30.970297,81.4703578 L30.970297,78.6318003 Z M57.2377077,70.5216359 L66.1851772,70.5216359 L66.1851772,73.3601934 L57.2377077,73.3601934 L57.2377077,70.5216359 Z M57.2377077,78.6318003 L62.9172638,78.6318003 L62.9172638,81.4703578 L57.2377077,81.4703578 L57.2377077,78.6318003 Z M30.970297,86.7419647 L46.9830727,86.7419647 L46.9830727,89.5805222 L30.970297,89.5805222 L30.970297,86.7419647 Z M57.2377077,86.7419647 L64.8780119,86.7419647 L64.8780119,89.5805222 L57.2377077,89.5805222 L57.2377077,86.7419647 Z M30.970297,94.8521291 L43.7151593,94.8521291 L43.7151593,97.6906866 L30.970297,97.6906866 L30.970297,94.8521291 Z M57.2377077,94.8521291 L70.4334647,94.8521291 L70.4334647,97.6906866 L57.2377077,97.6906866 L57.2377077,94.8521291 Z" id="Shape" fill="#2A2823"></path>
        </g>
    </g>
</svg>