<?xml version="1.0" encoding="UTF-8" standalone="no"?>
<svg width="160px" height="185px" viewBox="0 0 160 185" version="1.1" xmlns="http://www.w3.org/2000/svg" xmlns:xlink="http://www.w3.org/1999/xlink">
    <!-- Generator: Sketch 41 (35326) - http://www.bohemiancoding.com/sketch -->
    <title>Group</title>
    <desc>Created with Sketch.</desc>
    <defs></defs>
    <g id="Page-1" stroke="none" stroke-width="1" fill="none" fill-rule="evenodd">
        <g id="Group">
            <path d="M77.0535362,25.053254 C78.0313173,25.0178532 79.0135738,25 80,25 C124.18278,25 160,60.81722 160,105 C160,149.18278 124.18278,185 80,185 C35.81722,185 0,149.18278 0,105 C0,69.7508537 22.7972785,39.8262971 54.4520751,29.1660905 C55.6078045,32.3602696 58.0319294,36.3259892 63.6224506,36.29678 C66.9603048,36.306202 69.0249315,34.99453 71.2807472,32.1507657 C71.5454385,31.8170861 72.9249265,29.9863259 73.4221496,29.3626684 L76.4669772,26.1308455 L76.5608082,26.0238702 C76.7992661,25.7316607 76.9652273,25.4008786 77.0535362,25.053254 Z" id="Combined-Shape" fill="#E5E5E5"></path>
            <path d="M67.0388035,35.6903496 C67.305112,35.8628085 67.5496852,35.981967 67.6140692,36.0334243 C67.7842683,36.1694416 68.6675336,36.5461772 69.3142638,36.5461772 C69.9609793,36.5461772 70.3710204,36.9164492 71.1198612,37.5625267 C71.8687021,38.2086026 71.5637486,37.6678945 71.7339477,38.1439518 C71.9041321,38.6200077 72.9602361,38.5154457 73.4708041,38.5834543 C73.9813867,38.6514614 74.4233163,38.652232 74.1169697,39.366318 C73.8114501,40.0785113 74.1484666,40.1806795 74.8593727,40.82217 L75.7434194,40.82217 C75.850816,40.9409033 75.9751403,41.0530136 76.1562793,41.1701021 C76.734921,41.5441407 77.0073921,40.8948549 77.3477903,41.5409323 C77.6881738,42.1870097 78.4869921,41.1395611 78.9975748,42.4657187 C79.5081427,43.7918764 77.5860045,44.2302288 77.1094881,43.9581959 C76.632957,43.6861629 76.1221104,44.0609794 75.4413727,44.7410596 C74.7605909,45.4211414 74.8625256,45.2492344 74.2498617,45.2492344 C73.6371684,45.2492344 73.6724078,45.6913929 73.4341349,45.9634259 C73.1958767,46.2354589 73.4013298,46.3362836 72.8567103,46.7783367 C72.3121055,47.2203897 72.7205921,47.3919144 73.0950125,48.1060004 C73.2580992,48.4251832 73.2942478,48.6453622 73.4341349,49.2276473 C73.8425922,50.9278509 73.6382975,49.7366278 72.9575305,50.7567497 C72.2767634,51.7768715 72.9254807,51.8137443 73.1637535,52.4598217 C73.4020264,53.1058991 72.9561227,52.5246161 72.343444,52.8306519 C71.7307507,53.1366892 71.5964143,53.4769418 71.3581561,54.2590349 C71.3581561,54.7384135 71.121709,55.0073362 70.3728681,55.687418 C69.624086,56.3674997 69.9957201,55.9615503 69.6212997,56.6076262 C69.2468792,57.2536963 68.3623381,57.4206838 68.2602275,58.1687756 C68.1581168,58.9168674 68.5679086,59.4651321 68.3977095,60.0091922 C68.2275251,60.553267 67.8882854,60.0066724 67.3436805,60.6867585 C66.799061,61.3668446 65.91375,61.3316112 65.1989607,61.2636055 C64.4841568,61.1955998 63.9700913,62.2833904 63.6637446,63.3375078 C63.357398,64.3916398 63.5641856,64.496549 63.2238021,65.2786437 C62.8834185,66.0607383 63.0848976,65.481562 62.2339314,66.5696822 C61.3829799,67.6578097 62.1356629,67.3865781 61.6931687,67.5906098 C61.2506745,67.7946268 61.4881921,67.6914316 61.1478233,68.4055206 C60.8074397,69.1196096 60.7038333,69.0884635 59.8188302,70.1085927 C58.9338418,71.1287072 58.8654454,70.7508523 57.6741104,70.8868783 C56.4827754,71.0228896 57.0959893,71.092331 56.7896426,71.7384143 C56.4833106,72.3844829 56.2127827,72.3153345 55.5660525,72.791389 C54.9193223,73.267458 55.2916823,73.3703822 54.883225,74.5265081 C54.4747677,75.6826633 53.9311747,75.6848974 52.8759872,76.3989717 C52.129253,76.9043176 52.1489135,77.1202813 52.1277021,77.4925955 C52.1200661,78.0413836 51.9249803,78.577609 51.5608082,79.0238702 L51.4669772,79.1308455 L48.4221496,82.3626684 C47.9249265,82.9863259 46.5454385,84.8170861 46.2807472,85.1507657 C44.0249315,87.99453 41.9603048,89.306202 38.6224506,89.29678 C36.6330432,89.3071742 35.0446024,88.8116833 33.7715996,88.0250958 C33.8180129,88.1022281 33.8665817,88.170743 33.9172218,88.2289205 C34.5979888,89.0110151 34.6650214,88.299651 35.6861569,88.9797372 C36.7073075,89.6598233 36.775022,89.3871926 37.7621357,89.3871926 C38.7492347,89.3871926 38.2714865,89.4899702 38.3395603,90.1700563 C38.407634,90.8501425 38.3433731,91.3245781 37.5604954,92.3446779 C36.7776323,93.3648071 37.3202208,94.523255 37.3542723,94.6932692 C37.3883092,94.8632834 37.4544692,95.1354234 37.6246536,95.4074607 C37.7948527,95.6794835 38.0332136,95.7469691 38.3395603,96.2910438 C38.6458922,96.8351039 38.884935,97.1406534 39.1232079,97.4126908 C39.3614661,97.6847135 40.8614575,97.6160559 41.4741508,97.3440185 C42.0868147,97.0719958 42.2236882,97.4467668 41.781194,97.8888184 C41.3386998,98.33087 41.4028141,99.3486845 41.6070501,99.9947677 C41.8112714,100.640851 43.0368633,102.242046 43.0368633,102.650095 C43.0368633,103.058144 43.1737367,104.349329 43.5822087,104.893389 C43.9906513,105.437449 44.1622583,105.505601 44.1962951,105.845644 C44.2303467,106.185687 43.921925,106.251246 43.5134677,106.999338 C43.1050104,107.74743 43.7545268,107.713603 44.7416406,108.189657 C45.7287396,108.665712 44.7087182,108.461724 43.4493094,108.427721 C42.1899006,108.393718 43.0721467,108.531803 42.6977409,109.109866 C42.3233205,109.687929 42.3598064,109.379977 41.5428918,109.379977 C40.7259772,109.379977 40.8947684,109.244485 40.9288053,108.496394 C40.9628422,107.748316 40.7598821,107.645495 40.589683,107.475466 C39.6705844,107.612159 39.4989921,107.988219 39.4989921,107.988219 C39.4989921,107.988219 39.430845,108.021584 39.0223877,108.15761 C38.6139304,108.293622 38.0356626,108.190339 37.1847111,108.25833 C36.3337596,108.326335 36.8095208,108.600504 36.4010635,109.416602 C35.9926062,110.232699 35.7900933,109.450605 34.7008694,109.416602 C33.611645,109.382599 33.5779527,108.870425 32.6248906,108.25833 C31.6718284,107.646279 31.4987257,108.021614 30.6818111,108.395674 C29.8648965,108.769705 29.5943392,108.73634 29.2199187,108.226283 C28.8454983,107.716225 28.4683356,108.227015 28.2300481,108.533019 C27.9256298,107.98564 27.2774625,108.120985 27.1072781,108.120985 C26.937079,108.120985 26.8362295,108.090198 26.7681557,107.750155 C26.7000819,107.410112 26.0872566,107.611521 25.8149469,107.71353 C25.5426518,107.815538 25.6473435,109.618114 25.6133066,110.094168 C25.5792697,110.570223 25.4417143,110.603009 24.9992201,110.671015 C24.5567259,110.739021 23.7716265,110.502942 23.3631839,110.400904 C22.9547119,110.29891 22.037439,109.958779 21.9012915,109.924777 C21.7651293,109.890788 21.0148659,110.979172 21.0489028,111.591223 C21.0829397,112.203304 21.2191313,111.929413 21.287205,112.337462 C21.3552788,112.745511 20.8131816,112.644938 20.6089603,113.188998 C20.4047243,113.733073 20.9474888,113.800544 21.3559461,114.072581 C21.7644034,114.344604 22.1069206,113.667704 22.5153779,113.463687 C22.9238352,113.259655 23.1582953,113.086264 23.2944428,112.882262 C23.430605,112.678216 24.1815943,112.168041 24.6921769,111.930007 C25.2027595,111.691972 25.0654095,111.929421 25.5079037,112.099398 C25.9503832,112.269412 25.2021509,112.542856 25.1000403,112.71287 C24.997915,112.882899 24.2836023,113.120992 23.7389681,113.188998 C23.1943632,113.257004 23.1261868,113.327053 23.0240615,113.633079 C22.9219508,113.939104 22.8871734,114.107976 22.4787161,114.447989 C22.0702588,114.788033 22.6856504,115.026865 22.9919823,115.468917 C23.298329,115.910969 24.1821589,116.51998 24.0460113,116.792003 C23.9098638,117.06404 25.9871624,119.039919 26.2594722,119.277938 C26.5317672,119.515973 29.3568362,120.840436 30.0035664,121.214496 C30.2460847,121.354758 30.5211558,121.42607 30.8192931,121.466294 L33.0419194,121.466294 C33.2026539,121.332195 33.1001444,121.065597 33.1656533,120.738369 C33.2677786,120.228297 33.6436508,120.602343 34.2563441,120.738369 C34.8690227,120.87438 35.3458174,120.94043 35.9244591,120.770416 C36.5031008,120.600387 35.7216016,120.329551 36.3002433,119.955505 C36.8788851,119.581459 36.9451771,119.754095 37.2855313,119.99213 C37.6259295,120.230164 37.9343219,120.022859 37.9683587,119.886832 C38.0023956,119.750821 38.6158735,119.648102 38.7520064,119.580096 C38.8881686,119.512091 38.4109263,119.073848 38.4449631,118.801811 C38.479,118.529773 39.3294309,118.870483 39.3294309,118.870483 C39.3294309,118.870483 39.8381145,119.207962 39.8381145,119.309985 C39.8381145,119.412009 39.5677331,119.786128 39.5677331,120.024177 C39.5677331,120.262212 38.9882922,120.498349 38.5457833,120.532352 C38.1032891,120.566355 38.1378759,121.147157 37.8996177,121.283168 C37.4005997,121.664862 37.1159701,121.928688 37.1159701,121.928688 C37.1159701,121.928688 36.8448482,122.472228 36.3002433,122.812271 C35.7556385,123.152314 35.5138681,122.880943 34.7650277,122.880943 C34.0161722,122.880943 34.2563441,123.288398 34.2563441,123.288398 C34.2563441,123.288398 33.6094673,123.763193 33.3031353,123.627182 C32.9967887,123.491156 32.6215837,123.695231 32.2811855,123.865245 C31.9408166,124.035274 32.0114567,124.341373 31.841243,124.341373 C31.6710732,124.341373 31.3652325,124.03723 30.9567752,123.833198 C30.5483179,123.629181 30.5482445,123.970587 30.4801708,124.208607 C30.412097,124.446641 30.0362834,124.272701 29.8660843,124.272701 C29.6958999,124.272701 29.4568571,124.512764 29.0824367,124.716781 C28.7080016,124.920813 28.6418269,124.37668 28.5737531,124.240654 C28.5056794,124.104642 28.4002618,123.494386 28.2300481,123.256351 C28.0598783,123.018317 27.2768392,123.119007 27.2768392,123.119007 C27.2768392,123.119007 27.2427437,123.117688 26.8002348,123.219726 C26.3577553,123.321749 26.1874389,123.800558 26.0853282,124.208607 C25.9832322,124.61667 26.2228249,125.227059 26.4611125,126.145165 C26.6993707,127.063271 27.0065312,126.826093 27.4830623,127.404156 C27.959608,127.982204 29.9676011,129.986929 30.2739477,130.292969 C30.5802797,130.599009 31.5342584,131.823434 32.0108041,132.19748 C32.4873352,132.571526 32.3165862,132.604386 32.6569697,133.250454 C32.9973533,133.896538 33.5401763,134.715536 33.8805599,135.19159 C34.2209434,135.667645 34.5268281,135.939887 35.2416316,136.619973 C35.9564356,137.300045 35.9258522,137.263566 36.5385455,137.535603 C37.1512242,137.807641 37.2188213,138.659917 37.6613155,138.931939 C38.1037951,139.203977 38.8508981,139.032673 39.1232079,139.270723 C39.3955176,139.508757 40.3423179,140.256937 41.0571219,139.984914 C41.7719259,139.712877 41.5743477,139.170003 41.7445321,139.170003 C41.9147312,139.170003 42.4948834,139.610795 43.0735251,139.508786 C43.6521816,139.406749 44.7077063,139.033281 45.4565472,138.863267 C46.205388,138.693253 46.3063841,138.184368 46.7488783,138.048356 C47.1913872,137.912345 47.3598192,137.841021 48.2107707,137.704995 C49.0617369,137.568998 48.8943094,137.230794 49.2006414,136.958756 C49.506988,136.686748 50.0157742,136.756637 50.4242315,136.688646 C50.8326888,136.62064 51.3093666,136.107103 51.3774403,135.393029 C51.4455141,134.67894 51.9215686,134.4407 52.5002103,133.964646 C52.7139748,133.788784 52.8349317,133.594865 52.8938978,133.399659 C50.3775997,131.349018 49.3375116,128.102417 48.8139987,126.069799 L44,126.069799 L44,124.069799 C44,119.446095 48.0997333,116 52.543396,116 C55.8167928,116 58.9714916,118.351324 59.5973518,121.038485 L69.612158,121.038485 C70.5457789,121.038485 71.3960185,121.366047 71.8851624,122.396048 C72.3055623,123.282574 72.16894,124.278658 71.5608082,125.02387 L71.4669772,125.130846 L68.4221496,128.362668 C67.9249265,128.986326 66.5454385,130.817086 66.2807472,131.150766 C64.0249315,133.99453 61.9603048,135.306202 58.6224506,135.29678 C57.0713708,135.304884 55.7640321,135.005469 54.6598986,134.500332 C54.3427342,134.657408 54.3745488,135.062465 54.3745488,135.19159 C54.3745488,135.327602 54.4767328,135.903885 54.8511532,136.413957 C55.2255736,136.923999 55.4619474,136.820152 55.3598367,137.160195 C55.2577114,137.500238 55.4626586,137.707676 55.66688,138.217748 C55.871116,138.72782 56.0400392,138.862659 56.0060023,139.270723 C55.9719654,139.678771 56.1788997,140.054355 56.5192686,140.83645 C56.8596521,141.618559 56.3797848,141.684148 56.1755635,142.228208 C55.9713275,142.772283 55.6989151,142.7724 55.4606569,142.942399 C55.222384,143.112428 55.3604747,144.303473 55.1902756,144.677519 C55.0200911,145.051564 54.8164491,145.357737 54.7824122,145.629774 C54.7483753,145.901797 54.883159,146.412059 54.4066279,146.820093 C53.9301115,147.228148 54.3071569,147.466314 54.4432898,147.772354 C54.579452,148.078395 54.5775236,148.18055 54.7136712,148.72461 C54.8498187,149.26867 55.0535048,148.824025 55.3598367,148.926048 C55.6661834,149.028057 55.225603,149.368818 55.0894554,149.470841 C54.9533079,149.572849 54.7490425,150.015677 54.8511532,150.253712 C54.9532785,150.491732 55.1216225,150.32308 55.598139,150.62912 C56.07467,150.935161 55.5653486,151.104633 55.2590166,151.274632 C54.9526846,151.444676 55.2590166,152.226932 55.2590166,152.464951 C55.2590166,152.703001 55.1242035,153.961413 55.3964986,154.369462 C55.6688084,154.777526 55.7343305,153.891357 55.8364412,153.687325 C55.9385665,153.483308 56.2443045,152.973134 56.2443045,152.973134 C56.2443045,152.973134 56.9599224,152.804438 57.2662544,153.110478 C57.572601,153.416518 56.9958144,153.518629 56.5192686,153.82467 C56.0427375,154.130695 56.2436813,154.028804 56.4138657,154.538861 C56.245639,155.151 55.8390515,155.047702 55.6348008,155.115708 C55.4305942,155.183714 55.3284102,155.761952 55.3964986,156.306027 C55.4645871,156.850087 55.9719654,156.918239 56.0060023,157.258283 C56.0400392,157.598326 55.4266054,157.93916 55.4606569,158.279203 C55.4946938,158.619231 55.9072132,158.992149 56.3497074,159.332177 C56.7922016,159.672221 56.6213939,159.739743 56.5192686,160.453832 C56.417158,161.167921 56.7209089,161.204648 56.7209089,161.204648 C57.060296,161.571349 57.0619149,161.624491 57.0637172,161.677955 C57.075039,162.013796 57.093601,162.362335 57.1287723,162.564352 C57.2649052,163.346447 57.6727833,163.003268 57.5366357,163.411317 C57.4004882,163.819366 58.1833952,165.319857 57.7749379,165.965925 C57.3664806,166.612008 57.6742204,166.40679 58.3890244,166.780836 C59.1038283,167.154882 57.9491258,166.950352 58.187384,167.664412 C58.4256569,168.378515 58.7281467,168.447283 58.7281467,168.447283 C58.7281467,168.447283 58.3897063,168.956168 58.4577654,169.262194 C58.5258538,169.568234 58.6260067,169.669656 58.4898445,169.907706 C58.353697,170.14574 58.6626979,171.098127 58.7648086,171.812216 C58.8669193,172.526276 58.7622569,174.327108 59.2047511,175.415228 C59.6472453,176.503363 59.7154217,176.298877 59.9196577,176.774932 C60.123879,177.250986 59.9904005,177.697198 60.1946218,178.377284 C60.3988578,179.057371 61.0810473,178.985541 61.0470105,179.15557 C61.0129882,179.32557 61.0103486,179.42771 61.0103486,179.869762 C61.0103486,180.311798 61.4169215,180.076474 61.5190321,180.382514 C61.6211574,180.68854 61.7933583,181.232219 61.9635574,181.980296 C62.1337418,182.728388 62.4422222,181.94373 63.1229892,182.419799 C63.8037563,182.895853 63.1229013,182.521851 62.6463848,182.657863 C62.3899357,182.731058 62.3008763,182.863956 62.3210602,183.039993 C68.0083194,184.322879 73.9250847,185 80,185 C124.18278,185 160,149.18278 160,105 C160,99.6552051 159.475859,94.4328299 158.476174,89.3814705 C158.152421,89.272926 158.10927,88.9388114 157.540998,88.7050481 C156.962356,88.4670282 157.135701,88.9784773 156.693192,89.3185203 C156.248,88.980433 156.079744,88.7723872 155.909544,88.6363759 C155.73936,88.5003499 155.465019,88.3655691 155.465019,88.0595289 C155.465019,87.7535033 155.158526,87.4499683 154.51181,87.3819626 C153.86508,87.3139569 153.935009,87.6886987 153.764825,87.6886987 C153.59464,87.6886987 152.847596,87.8914558 152.779537,88.0274818 C152.711434,88.1634932 152.062643,87.854772 151.858407,87.5147289 C151.654186,87.1747005 149.3378,86.4283741 148.622996,86.2923627 C147.908207,86.1563367 148.146392,86.0875326 148.146392,85.2714351 C148.146392,84.4553376 147.40132,83.3675324 147.129025,83.1975328 C146.856715,83.0275186 145.765922,83.3688509 145.323427,83.0968135 C144.880933,82.8247908 145.152546,82.7239982 145.016384,82.5199665 C144.880237,82.3159495 144.440162,82.1458474 143.623233,82.0438389 C143.00919,82.2819027 142.598555,82.2472772 141.849715,82.4512943 C141.100874,82.655326 141.510592,83.1288606 141.510592,83.1288606 C141.510592,83.1288606 140.998587,83.0601737 140.658203,82.8221245 C140.37058,82.6209982 139.4518,82.6892865 139.050668,82.8383813 C138.946864,82.9728424 138.833857,83.1199962 138.716673,83.2730361 C138.644381,83.5073109 138.598638,83.7733312 138.513484,83.8796773 C138.450853,83.9578786 138.3673,83.9353479 138.272134,83.8551155 C137.829055,84.4363424 137.413883,84.98293 137.280747,85.1507657 C135.024931,87.99453 132.960305,89.306202 129.622451,89.29678 C122.693348,89.332983 120.628482,83.2321541 119.813999,80.0697985 L115,80.0697985 L115,78.0697985 C115,76.3931054 115.539117,74.8712682 116.438251,73.6124622 C116.231742,73.5368898 116.00514,73.3712403 115.778603,73.2354696 C115.43822,73.0314306 113.533063,71.7063599 113.533063,71.4683107 C113.533063,71.2302909 114.073914,71.2629166 114.55043,71.0929024 C115.026976,70.9228882 114.722616,70.6853737 114.756653,70.2093193 C114.79069,69.7332649 114.82351,69.4591106 115.334078,69.0510472 C115.844646,68.6429984 115.333345,67.9986365 115.265337,67.3525533 C115.197278,66.7064846 115.43822,66.7743438 115.778603,66.4002979 C116.119207,66.026252 116.049637,65.4826387 116.117725,65.0405872 C116.185785,64.5985209 116.39269,64.3263957 116.39269,64.3263957 C116.39269,64.3263957 116.96952,64.3256631 117.377977,63.7815957 C117.786435,63.2375356 117.446718,62.9300597 117.446718,62.9300597 C117.446718,62.9300597 117.854655,62.8312962 118.331186,62.7972933 C118.807732,62.7632905 119.148233,62.2184173 119.284395,61.7763657 C119.420543,61.3342995 119.452695,61.1282241 119.793079,61.0942213 C120.133477,61.0602184 120.987882,60.9940953 121.089993,60.5860465 C121.192103,60.1779978 120.984575,59.5997444 120.746287,59.3957273 C120.508044,59.1916957 119.792338,59.4630665 119.247733,59.3270551 C118.703114,59.1910291 119.114123,58.6147461 118.807791,58.1046889 C118.501444,57.5946169 116.899401,58.1046596 116.69515,57.866625 C116.490929,57.6285905 116.458036,57.4218778 115.641121,57.3538721 C114.824192,57.2858665 115.300041,57.0744555 115.334078,56.1223496 C115.368115,55.1702364 114.687868,55.5167064 114.44961,55.3806892 C114.211337,55.2446734 114.041065,55.281892 113.973006,55.009859 C113.904932,54.7378275 113.734615,54.7345063 113.258099,54.6664977 C112.781568,54.5984891 113.021681,54.5677005 112.511113,54.2956675 C112.000545,54.0236345 111.692688,53.6475273 111.18212,53.613523 C110.671552,53.5795187 110.741437,53.9889314 110.196832,53.9889314 C109.652213,53.9889314 109.445858,53.4087281 109.0374,52.8306592 C108.628943,52.2525904 108.291082,52.5244813 108.359156,51.8784039 C108.427229,51.2323265 107.949261,50.8620193 107.506767,50.6239906 C107.064273,50.3859619 107.098904,50.2145428 107.098904,50.0105184 C107.098904,49.806494 106.861819,49.7724546 106.283177,49.7724546 C105.70455,49.7724546 105.70114,50.2820284 105.462867,50.8941015 C105.224594,51.5061746 104.922105,51.2695099 104.922105,51.2695099 L104.5784,50.0425655 C104.5784,50.0425655 104.048196,49.4650197 104.660889,49.1589824 C105.273567,48.8529466 104.955489,48.5474308 104.853364,48.2753993 C104.751253,48.0033663 103.999047,46.8476096 104.271356,46.4395609 C104.543666,46.0315121 104.408838,45.964655 104.408838,45.3865862 C104.408838,44.8085174 104.340691,45.0784862 103.932234,44.7044418 C103.523777,44.3303973 103.319482,44.3328761 103.45563,43.7888116 C103.591777,43.2447471 103.046402,43.1393427 102.671982,42.9693226 C102.297562,42.7993026 102.536502,42.7318521 102.740723,42.3238034 C102.944959,41.9157547 102.742703,41.952938 102.708644,41.7149093 C102.688088,41.5710997 102.606681,41.1783193 102.566579,40.82217 C102.540312,40.5888308 102.530744,40.3710412 102.571162,40.2499011 C102.673272,39.9438653 103.388252,40.0471689 103.762673,40.1491818 C103.993423,40.2120526 104.10635,40.4814413 104.184284,40.82217 L108.052112,40.82217 C108.186339,40.6098214 108.269855,40.3872456 108.492055,40.3872456 C108.76435,40.3872456 108.766425,40.7260288 109.174882,40.7260288 C109.58334,40.7260288 109.787055,40.3544998 110.05935,40.0484625 C110.33166,39.7424267 110.606001,38.8221114 110.503875,38.4140627 C110.401765,38.006014 108.867172,36.5428575 108.799098,36.2028159 C108.731024,35.8627758 109.276385,35.0124249 109.344444,34.536369 C109.412547,34.0603117 109.105445,34.0948742 108.799098,33.8908498 C108.492752,33.6868254 108.016074,33.8234697 107.845889,33.7214582 C107.67569,33.6194453 107.198983,33.4487264 106.654378,33.4147221 C106.109774,33.3807178 105.599044,33.3159249 105.70117,33.0438919 C105.80328,32.7718589 105.667756,32.260993 105.531608,32.0229643 C105.395476,31.7849356 105.632429,31.1714283 105.632429,31.1714283 C105.632429,31.1714283 106.058029,30.3898215 106.466486,30.0497814 C106.449475,29.6057007 106.317228,29.232843 106.283177,28.7907899 C106.24914,28.3487369 106.040886,28.5174282 105.632429,28.6534454 C105.223957,28.7894612 105.123774,28.2812879 105.362047,28.1452707 C105.477524,28.0793475 105.504747,27.9419684 105.502139,27.7985274 C105.783254,27.8776301 106.396393,28.1193323 107.038314,28.3330955 C107.714749,28.5583476 107.96948,28.4611824 108.066123,28.2681094 C108.112781,28.1748831 108.115122,28.0224693 108.166711,27.8535356 C108.847248,28.0720643 109.10705,27.9694642 109.206962,27.7698623 C109.309072,27.5658379 109.21032,27.093553 109.788969,26.7535129 C110.367611,26.4134727 110.128744,26.3093956 110.196832,26.0713684 C110.245379,25.9016176 110.363546,25.0742126 110.52611,24.5395025 C110.680291,24.5060504 110.815713,24.4656404 110.902357,24.4079308 C111.020728,24.3290969 111.047601,24.1642932 111.042346,23.9771532 C111.420004,23.881673 111.974321,23.8437561 112.20407,23.69073 C112.37747,23.5752474 112.365064,23.285186 112.333984,22.9996781 C112.551773,22.9028891 112.754021,22.7541989 112.897262,22.5753208 C112.945259,22.515386 112.975506,22.4274478 112.993992,22.3215219 C113.047371,22.3272621 113.102027,22.3310193 113.157279,22.3310193 C113.565751,22.3310193 114.039833,22.0942124 114.312128,21.7541723 C114.584438,21.4141322 114.316087,20.2210837 114.486272,19.8130364 C114.656442,19.4049877 114.859431,19.3362099 114.825394,19.0301726 C114.791357,18.7241368 114.890887,18.3205241 115.027035,18.0824954 C115.163197,17.8444668 115.472271,17.3303148 115.778603,16.9562704 C116.08495,16.5822245 116.01428,15.8338528 115.980243,15.0517601 C115.974875,14.9283658 115.944115,14.8177448 115.895307,14.7178697 C114.118276,16.4797694 112.271274,17.304257 109.622451,17.29678 C105.414424,17.318766 103.000377,15.0773511 101.570889,12.6052454 C101.534505,12.6065168 101.494257,12.6070276 101.448392,12.6070276 C101.073971,12.6070276 100.904322,13.3219194 100.563924,13.6279552 C100.22354,13.9339925 99.676076,14.3754859 98.8591467,14.2734745 C98.0422321,14.1714616 98.1121317,14.9856736 97.8738588,14.7816492 C97.6356006,14.5776249 97.3278168,14.4076048 97.0214701,14.7816492 C96.7151382,15.1556947 96.4118491,15.0877217 95.6970598,15.0197131 C94.9822559,14.9517059 95.4908368,14.6475189 95.4908368,14.2734745 C95.4908368,13.8994301 95.0161168,13.2504842 94.5055488,12.5704024 C93.9949662,11.8903222 92.1211043,12.539649 91.2701381,12.4376361 C90.4192306,12.3356246 90.7240815,11.6854203 90.4177495,11.0733472 C90.1114029,10.461274 90.1800852,9.8868722 90.0098861,9.3428062 C89.8397017,8.7987417 88.9571183,9.0033228 88.6167348,8.6972869 C88.2763513,8.3912497 88.2055498,7.8130051 87.8651663,7.5069678 C87.5247828,7.2009319 86.6768742,7.3682945 86.3024538,7.2322787 C85.928048,7.0962615 85.7583402,6.4173679 85.1796838,6.4173679 C84.6010421,6.4173679 84.5976765,6.0432165 84.5976765,5.7031764 C84.5976765,5.3631363 84.1911036,5.1250021 84.0889929,4.9889849 C83.9868676,4.8529691 83.1364074,4.4794814 82.966223,4.3434656 C82.7960532,4.2074484 82.7593033,3.7999227 82.4529567,3.4598825 C82.1466247,3.1198424 81.840828,2.947723 81.8067911,2.5396743 C81.7727542,2.1316255 81.261431,2.3715397 81.0231435,2.0314995 C80.7848999,1.6914595 81.1285464,1.4500744 81.1285464,1.4500744 C81.1285464,1.4500744 80.5157211,1.1112561 80.1753376,0.8732275 C79.834954,0.6351988 79.4931333,1.3160159 79.3229489,1.4180274 C79.1527645,1.5200403 78.7455243,1.4500744 78.7455243,1.4500744 C78.199541,1.1780063 77.7555803,1.7927706 77.2790493,1.7247635 C76.8025182,1.6567549 76.9765448,1.4513314 76.7382866,1.1112913 C76.5000137,0.7712497 76.0547625,0.5364001 75.7484159,0.5023972 C75.4148441,0.5640375 75.2030778,1.2806829 75.2030778,1.2806829 L74.4881712,1.3859803 L74.0115668,0.8732275 L73.4708041,1.1479165 L73.1637609,1.6240442 L72.5817536,2.0314995 L72.141811,1.862108 L71.1886022,2.7090658 L70.6111777,2.1642659 L69.8596092,1.6560912 L69.3142638,1.6560912 L69.0118033,2.1642659 C69.0118033,2.1642659 69.0438824,2.6763903 69.0438824,2.8464104 C69.0438824,3.0164304 69.5204868,2.9471297 69.5204868,2.9471297 L69.9970912,3.3912103 C69.8242671,3.9333893 69.4517458,3.8307128 69.4517458,3.8307128 C69.5198196,4.0007328 68.225472,3.6645354 67.7148894,3.290491 C67.2043214,2.9164465 66.8977695,3.2218539 66.2850762,3.4598825 C65.6723975,3.6979112 65.5046621,3.5252703 65.130227,3.4232573 C64.7558066,3.3212459 64.5186776,3.6961312 64.0761981,4.6822488 C63.6336892,5.6683663 63.5975626,4.8170076 63.1550684,5.0210319 C62.7125595,5.2250563 62.7144586,5.5986129 62.6463848,6.1426789 C62.5783111,6.6867434 62.5742929,6.3167189 61.9956365,6.7927763 C61.4169948,7.2688336 61.5216278,6.8229364 61.3173918,7.332998 C61.1131705,7.8430597 60.943492,7.571097 60.432924,7.8091257 C59.922356,8.0471544 59.6834013,8.1500785 60.1258808,9.5442448 C60.3471425,10.241328 60.4398018,10.326779 60.4695859,10.3225304 C60.3648502,11.2452542 60.2274269,11.0773671 60.7720464,11.7234446 C61.1597703,12.1834095 61.3927158,11.9864604 61.9246331,11.859364 C61.9202519,11.8919334 61.9154442,11.9336129 61.9101078,11.9869079 C61.845688,12.6304852 61.715641,12.4716098 62.2310272,13.083008 C62.7463996,13.6944048 62.9727918,13.0793064 64.1001661,13.1436618 C64.9310807,13.1910954 65.0090509,13.0294727 65.2247271,13.185965 C65.3123315,13.2742846 65.3995699,13.3576167 65.4878539,13.4350667 C65.5070518,13.4551297 65.5272769,13.476392 65.5486404,13.4989195 C65.8000627,13.7640475 66.0211286,14.0173473 66.2329127,14.2454613 C66.2651308,14.3327399 66.3267399,14.4479867 66.4546373,14.6122576 C66.6290987,14.8363418 66.7944595,14.9145746 66.9490321,14.9053608 C66.9862804,14.9316435 67.0239565,14.9567469 67.0621659,14.9806042 C67.5775521,15.3023921 67.1576299,15.2375404 67.6085963,15.8167596 C67.8299771,16.1011086 68.0358729,16.1372861 68.2224333,16.058549 C68.2619228,16.1028717 68.3082955,16.1507347 68.361055,16.2100318 C68.6333647,16.5160691 68.4672424,16.4148619 69.2501055,17.2309594 C69.3639782,17.3496641 69.463384,17.435955 69.552217,17.4980058 C69.6491827,17.6269938 69.7050304,17.7226099 70.2540133,18.2948984 C70.5165791,18.5686056 70.6978665,18.6602056 70.851185,18.6815897 C70.6787937,18.9106954 70.4386627,19.1714746 70.1987316,19.4742532 C69.5519867,20.2903507 69.6238293,20.0190898 68.9430623,20.257117 C68.2622952,20.4951457 68.0546497,20.1865593 67.8844506,20.6966195 C67.7142661,21.2066812 67.7822372,20.9367461 67.1695439,21.6168278 C66.9595135,21.8499639 66.8459218,21.9713756 66.7530502,22.0384845 L74.612158,22.0384845 C75.5457789,22.0384845 76.3960185,22.3660467 76.8851624,23.3960481 C77.3055623,24.2825736 77.16894,25.2786576 76.5608082,26.0238702 L76.4669772,26.1308455 L73.4221496,29.3626684 C72.9249265,29.9863259 71.5454385,31.8170861 71.2807472,32.1507657 C69.9062139,33.883553 68.6026655,35.0475027 67.0388035,35.6903496 L67.0388035,35.6903496 Z M140.612158,105.038485 L130.597352,105.038485 C129.971492,102.351324 126.816793,100 123.543396,100 C119.099733,100 115,103.446095 115,108.069799 L115,110.069799 L119.813999,110.069799 C120.628482,113.232154 122.693348,119.332983 129.622451,119.29678 C132.960305,119.306202 135.024931,117.99453 137.280747,115.150766 C137.545439,114.817086 138.924927,112.986326 139.42215,112.362668 L142.466977,109.130846 L142.560808,109.02387 C143.16894,108.278658 143.305562,107.282574 142.885162,106.396048 C142.396019,105.366047 141.545779,105.038485 140.612158,105.038485 Z M85.612158,102.038485 L75.5973518,102.038485 C74.9714916,99.3513236 71.8167928,97 68.543396,97 C64.0997333,97 60,100.446095 60,105.069799 L60,107.069799 L64.8139987,107.069799 C65.6284819,110.232154 67.6933485,116.332983 74.6224506,116.29678 C77.9603048,116.306202 80.0249315,114.99453 82.2807472,112.150766 C82.5454385,111.817086 83.9249265,109.986326 84.4221496,109.362668 L87.4669772,106.130846 L87.5608082,106.02387 C88.16894,105.278658 88.3055623,104.282574 87.8851624,103.396048 C87.3960185,102.366047 86.5457789,102.038485 85.612158,102.038485 Z M98.612158,54.0384845 L88.5973518,54.0384845 C87.9714916,51.3513236 84.8167928,49 81.543396,49 C77.0997333,49 73,52.446095 73,57.0697985 L73,59.0697985 L77.8139987,59.0697985 C78.6284819,62.2321541 80.6933485,68.332983 87.6224506,68.29678 C90.9603048,68.306202 93.0249315,66.99453 95.2807472,64.1507657 C95.5454385,63.8170861 96.9249265,61.9863259 97.4221496,61.3626684 L100.466977,58.1308455 L100.560808,58.0238702 C101.16894,57.2786576 101.305562,56.2825736 100.885162,55.3960481 C100.396019,54.3660467 99.5457789,54.0384845 98.612158,54.0384845 Z" id="Combined-Shape" fill="#2A2823"></path>
            <path d="M140.612158,107.038485 L128.992601,107.038485 C128.740187,104.202371 126.43881,102 123.543396,102 C120.47369,102 117,104.35022 117,108.069799 L121.495207,108.069799 C121.712298,110.905912 123.543396,117.385171 129.684355,117.297738 C133.888428,117.308591 135.27373,114.317144 137.911832,111.049167 L141.011277,107.759373 C141.137097,107.605192 141.163396,107.432962 141.078055,107.252998 C140.992713,107.073291 140.81146,107.038485 140.612158,107.038485 Z M140.612158,77.0384845 L128.992601,77.0384845 C128.740187,74.202371 126.43881,72 123.543396,72 C120.47369,72 117,74.3502197 117,78.0697985 L121.495207,78.0697985 C121.712298,80.905912 123.543396,87.385171 129.684355,87.2977383 C133.888428,87.3085913 135.27373,84.3171437 137.911832,81.0491675 L141.011277,77.759373 C141.137097,77.6051916 141.163396,77.4329621 141.078055,77.2529978 C140.992713,77.0732914 140.81146,77.0384845 140.612158,77.0384845 Z M85.612158,104.038485 L73.992601,104.038485 C73.740187,101.202371 71.43881,99 68.543396,99 C65.47369,99 62,101.35022 62,105.069799 L66.495207,105.069799 C66.712298,107.905912 68.543396,114.385171 74.684355,114.297738 C78.888428,114.308591 80.27373,111.317144 82.911832,108.049167 L86.011277,104.759373 C86.137097,104.605192 86.163396,104.432962 86.078055,104.252998 C85.992713,104.073291 85.81146,104.038485 85.612158,104.038485 Z M98.612158,56.0384845 L86.992601,56.0384845 C86.740187,53.202371 84.43881,51 81.543396,51 C78.47369,51 75,53.3502197 75,57.0697985 L79.495207,57.0697985 C79.712298,59.905912 81.543396,66.385171 87.684355,66.2977383 C91.888428,66.3085913 93.27373,63.3171437 95.911832,60.0491675 L99.011277,56.759373 C99.137097,56.6051916 99.163396,56.4329621 99.078055,56.2529978 C98.992713,56.0732914 98.81146,56.0384845 98.612158,56.0384845 Z M69.612158,123.038485 L57.992601,123.038485 C57.740187,120.202371 55.43881,118 52.543396,118 C49.47369,118 46,120.35022 46,124.069799 L50.495207,124.069799 C50.712298,126.905912 52.543396,133.385171 58.684355,133.297738 C62.888428,133.308591 64.27373,130.317144 66.911832,127.049167 L70.011277,123.759373 C70.137097,123.605192 70.163396,123.432962 70.078055,123.252998 C69.992713,123.073291 69.81146,123.038485 69.612158,123.038485 Z M120.612158,5.03848453 L108.992601,5.03848453 C108.740187,2.20237104 106.43881,0 103.543396,0 C100.47369,0 97,2.35021973 97,6.06979853 L101.495207,6.06979853 C101.712298,8.90591202 103.543396,15.385171 109.684355,15.2977383 C113.888428,15.3085913 115.27373,12.3171437 117.911832,9.04916749 L121.011277,5.75937302 C121.137097,5.60519157 121.163396,5.43296214 121.078055,5.25299784 C120.992713,5.07329138 120.81146,5.03848453 120.612158,5.03848453 Z M49.612158,77.0384845 L37.992601,77.0384845 C37.740187,74.202371 35.43881,72 32.543396,72 C29.47369,72 26,74.3502197 26,78.0697985 L30.495207,78.0697985 C30.712298,80.905912 32.543396,87.385171 38.684355,87.2977383 C42.888428,87.3085913 44.27373,84.3171437 46.911832,81.0491675 L50.011277,77.759373 C50.137097,77.6051916 50.163396,77.4329621 50.078055,77.2529978 C49.992713,77.0732914 49.81146,77.0384845 49.612158,77.0384845 Z M74.612158,24.0384845 L62.992601,24.0384845 C62.740187,21.202371 60.43881,19 57.543396,19 C54.47369,19 51,21.3502197 51,25.0697985 L55.495207,25.0697985 C55.712298,27.905912 57.543396,34.385171 63.684355,34.2977383 C67.888428,34.3085913 69.27373,31.3171437 71.911832,28.0491675 L75.011277,24.759373 C75.137097,24.6051916 75.163396,24.4329621 75.078055,24.2529978 C74.992713,24.0732914 74.81146,24.0384845 74.612158,24.0384845 Z" id="Combined-Shape" fill="#FFC500"></path>
        </g>
    </g>
</svg>