<?xml version="1.0" encoding="UTF-8" standalone="no"?>
<svg width="186px" height="166px" viewBox="0 0 186 166" version="1.1" xmlns="http://www.w3.org/2000/svg" xmlns:xlink="http://www.w3.org/1999/xlink">
    <!-- Generator: Sketch 41 (35326) - http://www.bohemiancoding.com/sketch -->
    <title>Group</title>
    <desc>Created with Sketch.</desc>
    <defs></defs>
    <g id="Page-1" stroke="none" stroke-width="1" fill="none" fill-rule="evenodd">
        <g id="Group">
            <path d="M72,6 C72,2.68918004 74.6912675,0 78,0 C81.31082,0 84,2.69126752 84,6 C84,9.31081996 81.3087325,12 78,12 C74.68918,12 72,9.30873248 72,6 Z" id="Path" fill="#FFC500"></path>
            <path d="M19,99 C19,95.68918 21.6912675,93 25,93 C28.31082,93 31,95.6912675 31,99 C31,102.31082 28.3087325,105 25,105 C21.68918,105 19,102.308732 19,99 Z" id="Path" fill="#FFC500"></path>
            <path d="M74,140 C74,136.68918 76.6912675,134 80,134 C83.31082,134 86,136.691268 86,140 C86,143.31082 83.3087325,146 80,146 C76.68918,146 74,143.308732 74,140 Z" id="Path" fill="#FFC500"></path>
            <path d="M26,92 C26,88.68918 28.6912675,86 32,86 C35.31082,86 38,88.6912675 38,92 C38,95.31082 35.3087325,98 32,98 C28.68918,98 26,95.3087325 26,92 Z" id="Path" fill="#FFC500"></path>
            <path d="M33,54 C33,50.68918 35.6912675,48 39,48 C42.31082,48 45,50.6912675 45,54 C45,57.31082 42.3087325,60 39,60 C35.68918,60 33,57.3087325 33,54 Z" id="Path" fill="#FFC500"></path>
            <path d="M97,27 C97,23.68918 99.6912675,21 103,21 C106.31082,21 109,23.6912675 109,27 C109,30.31082 106.308732,33 103,33 C99.68918,33 97,30.3087325 97,27 Z" id="Path" fill="#FFC500"></path>
            <path d="M0,63 C0,59.68918 2.69126752,57 6,57 C9.31081996,57 12,59.6912675 12,63 C12,66.31082 9.30873248,69 6,69 C2.68918004,69 0,66.3087325 0,63 Z" id="Path" fill="#FFC500"></path>
            <path d="M155,85 C155,81.68918 157.691268,79 161,79 C164.31082,79 167,81.6912675 167,85 C167,88.31082 164.308732,91 161,91 C157.68918,91 155,88.3087325 155,85 Z" id="Path" fill="#FFC500"></path>
            <path d="M106,30 C106,26.68918 108.691268,24 112,24 C115.31082,24 118,26.6912675 118,30 C118,33.31082 115.308732,36 112,36 C108.68918,36 106,33.3087325 106,30 Z" id="Path" fill="#FFC500"></path>
            <path d="M134,68 C134,64.68918 136.691268,62 140,62 C143.31082,62 146,64.6912675 146,68 C146,71.31082 143.308732,74 140,74 C136.68918,74 134,71.3087325 134,68 Z" id="Path" fill="#FFC500"></path>
            <path d="M70,53 C70,49.68918 72.6912675,47 76,47 C79.31082,47 82,49.6912675 82,53 C82,56.31082 79.3087325,59 76,59 C72.68918,59 70,56.3087325 70,53 Z" id="Path" fill="#FFC500"></path>
            <path d="M159.45302,101.735067 C160.023753,98.8736193 160.44185,95.9571171 160.698462,92.9944078 C156.422241,92.8355452 153,89.3120602 153,85 C153,80.7519095 156.319846,77.2733565 160.5011,77.0153484 C156.218062,38.692037 124.861918,8.54950008 85.9985508,6.15362056 C85.9165097,10.498567 82.3616665,14 78,14 C73.8357101,14 70.4108964,10.8098407 70.0343582,6.74532211 C41.6003188,10.6429781 17.9275127,29.4822506 7.19084299,55.0882362 C11.0425272,55.6643321 14,58.9914259 14,63 C14,67.415737 10.4129547,71 6,71 C4.76711536,71 3.59904746,70.7203754 2.55571061,70.2212223 C1.53528848,75.322355 1,80.5986658 1,86 C1,130.18278 36.81722,166 81,166 C94.5815263,166 107.372581,162.61559 118.575803,156.644132 C116.534407,156.150319 114.587757,155.444367 112.722151,154.527588 C112.532135,154.446357 112.376679,154.382147 111.931025,154.200227 C110.720348,153.70563 110.09195,153.408185 109.389081,152.948394 C94.5454449,144.092169 83.0394534,125.147681 81.4162072,108.929072 L66.81499,108.929072 C64.7588338,108.929072 63.065814,107.072137 63.065814,104.994296 C63.065814,88.1869339 76.3738514,74.8685105 93.2510657,74.8685105 C108.750482,74.8685105 121.392096,86.2895959 123.203818,101.481691 L126.151829,101.481691 C126.334664,101.481691 126.470859,101.4887 127.101364,101.535532 C129.113399,101.504063 145.327695,101.585003 156.797284,101.70577 C157.698279,101.715257 158.583743,101.725022 159.45302,101.735067 L159.45302,101.735067 Z M105.464892,34.6121846 C104.688227,34.8639418 103.859789,35 103,35 C98.584263,35 95,31.4129547 95,27 C95,22.584263 98.5870453,19 103,19 C105.698134,19 108.085834,20.339237 109.535108,22.3878154 C110.311773,22.1360582 111.140211,22 112,22 C116.415737,22 120,25.5870453 120,30 C120,34.415737 116.412955,38 112,38 C109.301866,38 106.914166,36.660763 105.464892,34.6121846 L105.464892,34.6121846 Z M32.9446787,99.9446552 C32.4764501,103.915783 29.0935678,107 25,107 C20.584263,107 17,103.412955 17,99 C17,94.9040382 20.0863293,91.5234848 24.0553213,91.0553448 C24.5235499,87.0842168 27.9064322,84 32,84 C36.415737,84 40,87.5870453 40,92 C40,96.0959618 36.9136707,99.4765152 32.9446787,99.9446552 L32.9446787,99.9446552 Z M72,140 C72,144.412955 75.584263,148 80,148 C84.4129547,148 88,144.415737 88,140 C88,135.587045 84.415737,132 80,132 C75.5870453,132 72,135.584263 72,140 Z M31,54 C31,58.4129547 34.584263,62 39,62 C43.4129547,62 47,58.415737 47,54 C47,49.5870453 43.415737,46 39,46 C34.5870453,46 31,49.584263 31,54 Z M132,68 C132,72.4129547 135.584263,76 140,76 C144.412955,76 148,72.415737 148,68 C148,63.5870453 144.415737,60 140,60 C135.587045,60 132,63.584263 132,68 Z M68,53 C68,57.4129547 71.584263,61 76,61 C80.4129547,61 84,57.415737 84,53 C84,48.5870453 80.415737,45 76,45 C71.5870453,45 68,48.584263 68,53 Z" id="Combined-Shape" fill="#EEEEEE"></path>
            <path d="M156.776226,103.705659 C165.086929,103.793165 172.073574,103.904348 177.214902,104.040506 C180.122774,104.117515 182.401964,104.201639 183.989735,104.292818 C184.816037,104.340268 185.44945,104.389373 185.876226,104.43911 C185.681219,104.416384 186.050557,104.49948 185.833663,104.046991 C186.112126,104.628761 186.043521,105.124315 185.607531,105.653629 L184.03537,107.359419 C163.180876,132.950786 147.872223,148.845955 137.661573,153.028626 C137.207351,153.215422 135.42593,153.808498 133.720769,154.273921 C130.946793,155.031077 128.382999,155.489453 126.315536,155.503393 C121.598419,155.535196 117.41778,154.606737 113.556001,152.710464 C113.304909,152.601626 113.142599,152.534585 112.784965,152.388604 C111.588056,151.899655 111.048873,151.644438 110.448072,151.252249 C95.8561249,142.545241 84.547615,123.632791 83.3283675,107.85204 L83.2570575,106.929072 L66.81499,106.929072 C65.9067645,106.929072 65.065814,106.006702 65.065814,104.994296 C65.065814,89.2911542 77.4787703,76.8685105 93.2510657,76.8685105 C108.018019,76.8685105 119.993801,87.9529736 121.306993,102.571163 L121.388788,103.481691 L126.151829,103.481691 C126.273671,103.481691 126.378657,103.487094 126.624299,103.504046 C126.823378,103.517715 126.921427,103.523472 127.03025,103.527357 C127.31247,103.500341 145.509535,103.587029 156.776226,103.705659 Z" id="Path" fill="#2A2823"></path>
        </g>
    </g>
</svg>